<mxfile host="app.diagrams.net" modified="2022-05-25T15:59:03.716Z" agent="5.0 (Windows NT 10.0; Win64; x64) AppleWebKit/537.36 (KHTML, like Gecko) Chrome/101.0.4951.64 Safari/537.36 Edg/101.0.1210.53" etag="m-BpywTJzXhUpX5hqlBh" version="18.1.1" type="gitlab">
  <diagram id="nbK5meIDsB6pS5FiWiSX" name="Page-1">
    <mxGraphModel dx="1345" dy="567" grid="1" gridSize="10" guides="1" tooltips="1" connect="1" arrows="1" fold="1" page="1" pageScale="1" pageWidth="1169" pageHeight="827" math="0" shadow="1">
      <root>
        <mxCell id="0" />
        <mxCell id="1" parent="0" />
        <mxCell id="VmoYGuIrsJqLHQtWDySe-32" style="edgeStyle=orthogonalEdgeStyle;rounded=0;orthogonalLoop=1;jettySize=auto;html=1;exitX=1;exitY=0.5;exitDx=0;exitDy=0;" parent="1" source="VmoYGuIrsJqLHQtWDySe-2" edge="1">
          <mxGeometry relative="1" as="geometry">
            <mxPoint x="190" y="382" as="targetPoint" />
          </mxGeometry>
        </mxCell>
        <mxCell id="VmoYGuIrsJqLHQtWDySe-2" value="Cab Driver" style="shape=image;verticalLabelPosition=bottom;labelBackgroundColor=default;verticalAlign=top;aspect=fixed;imageAspect=0;image=data:image/png,UklGRmojAABXRUJQVlA4TF4jAAAv/8F/EPWK47aRHElS/lmP292zz4iYAH7+ltdtahM9aKmKorq3dJmmFzhHxise6XjLteW9mdysCnQ1NulaxsEK2LACGhAIDGIZEHdKQPNL/oy2nW1TJDnypex1+NiHS+MRQ3dVxh9/44yZYcDMzMzMzNTdMzXy4d7Paqsys7+IzIzMkEquTDMzu5bMQ2vsLTMzu9yaallMM2NmBtGRJMmRJOn/X3c0xviO3N2bjAh3Oo4kSZIkUaseasjZe+eglt7//60rXQJt26a2DNu2bTPbtm3btm3btu3fuT78tv9XH9+iBdu227bB1XZLO+/cSwAETxrwR9na9kRyc6FOsjQzMzMzM1PDMM+EuntKZ9qdqRqfk7vxScGv//8lg3aD5o7DzMxsZnsXTs0izMxMO0i27bZtOM3JBrIBVwKpo8yy/4HZRIlyr+m9yAIgKRJs21bb5oFYYWZO3v/SJ80wqPfDZZpUh+CpSIEFgAAd27ZtK/tXzayrttNuzTbiko1kN9u2HyRIcuM2gKfKuRGDZUvQhPlTtrY9jeTcIVb3MDZtJ9SdXZa5qSyzx0uqkj79Jbl/rx2FGod8Bn0UGiaHE4cGKs3dXg2DTzjaOdTgUxvHjSQpUvyXdw8MYPLfvWQbSVKjzh5hYxEUL1xkJriNbVtVvoQ/pgCrwCNKoQZaowDPSN2dDtxZkthGciQp83jeVMf2tqmuc/NcwKfhAj4N0t6q0ddn11qw1ti1llP8o4G1xq61YK2xay1Ya+xaC9Yau9ZS8Y8Ua41da8FaY9dasNbYtZaG9WcPKv7nDssAcocV/3OHZQC5w4r/ucMygNxhxf/cYRlA7rDif+6wDCB3WPE/d1gGkDus+J87LAPIHVb8zx2WAeQOK/7nDiuW5g4r/ucOK/7nDps9lrxaSKZIdknucnzgyJFIPEVILiInufbaiy6aXqqIaZG5H1Tpop5SnRQsFfRjPJM2o/ASzKd6SaXgwr9k4a4oa+GSS07y6ToEw+SMcJ0o7svSYCMWfS1cVZI9jF8yJk9nqg/YiBlCiyw115nWJyj5QrhQnHnUQPgWh4rYMNhjkXBzh/IMoarDMIsWqp/NRCfZ3GEnRjJ2ysJ4FIuqQZy+yTV32IGdjA/mw1WyRMn42CHlIg7GRUYOhpG0cIktZ3QyzR60/c9XltyUlP6yRL8kioMXlcyYlIpLIxlq8/hvzHBrJ5iytHxGWjpQ/i6ZFCM0EhRwvi+YHiO5w2RG8foDuZnxkTtMaBS/KGbHRu4wkeEujkUxQSO58cYbzFLLp1gcy5Mt7TrQu2oM/lw18m3DqNct/hz5umXE25YRr5tuu+3/cx/6kjKWJT99BRuTSf99A9OsX8vDfX577TpEXIqSDQmWDi2bfL9vXXBik0kwo5PJZpN4eeZ9N5G1rPvbd7CR2Pur/8E0B6Flg/NmrU91r2u0ZyKOjYmV/t+9D1iXyW3YSFyKEYyWiE3GPe2ivRBxbE6oDHtfd4p3mdyGjcSlGEFpmbk51q5DpOMQydZEytCPVVGTMC+T27CRuDQ0eDl3deYl0mGo4OD83kamzx2aiIFfy9jug8JG4tKw4M95y3Mvkc5CBIcHeRsbPndoIAZ8L4uYiH2Z3IaNxKUhIZgL5xfat4h0Ekp1pNPpmj13yI++v73NNuBfJrdhI3GTHkC5cH6pfUdIMwjJkfHompyUHb2r1kYfKFgmt2EjsclGWgDngvmVdi0hzUg4zg5Bz+TZA270qlobvadiSazz23ewdWxwgW6ceWPh7Er7lpBGUBznx6OfFNmzPjiS9kdsFHVB1EVxm+TYBM6D90RdcNBXS8xMwPrW/u1fsHXsBpZOjknAmoHfQ5+WuEmgpfhIh4aQJpBcF59NhnSj0tpsJCFqg5IkyssblUlUJQHn3U+VlTcOHXJrKY9Wnovg+j7B1rEbeOYoixZYM/B76NJSWRhF3olPEvCZaGm61rEhpAmk5DJjkATpSqW1YcBEeWHl+0D2IvEJto7dwAvHz2oI3JO9EC0vRaemQJpAct3uxCj50VkKq3KLh4rCeOVZ6THCJ9g6dp95PxhK8N9DHIesKEQnKZAmkHzutDojM9NgRKeGnWahrBSFmeM/EoCXxCfYOv59HwgV+O7hDkNXFMYPpAkk1f0FnaWZc4d86NiQ5UlwUJZuFMZBzCSoM4R1fvsOto7NNoJCAd499FnIqtzqLCXSBJLqYZPHysi5QzZ0aMmS6TUOiqJxD/IEcd3fvoOtAwx+3HuUk9DV0erKJdIE8vGRzszEuUMutO/QdwwU5yLmPPR8wG/zGwk4CMDnNV8TZxCr46ArlUgTSFkv2zE3Lw0mvLRgfoFOSS7i3iOMh25D3g3AURotXsqSKPTO1/QRVHMXLlEevze4XjlYJDTmrs6QKUlGTnBI08HbgDeDcJwpzg1OSpPID6PYJGGZQK6Kg65UwVMsyZtOLJMY7Towc3uCSnlh5AZns01ow+HbsDeDNwH1FeeCjxfywyBiIq6h9Ko46lZXSBNIPm9/TWBM3x0j4Bv/FHonYiLF3mHIhXuP8ZrE2uD0qGukCSTXF4Ft0uKjKYcDNCqTUZQ59yn3DkMeypJw76HA17LBOz2PDdIEkiP9voTFpPs9NEqzQasG3uHnHJx8ImIi9iuS64PXs26RJpBcmYR9omLs8zYSZdHKtZEW3mFptDBoOrFRa9ngvd5VgzSBpF72SOdq0txh5Bn9so1CebTybKCJd/gzkfoc46uKfISNPujz18MRqIX40YSnQXOHUWfE24ZX8Vx3dVEb7/BnGvU5xjPsBHOjC/r8dUgTSJn7kcPVnLnDiDP0Y03UJGhOFnjvWX28w58pNGaY+YFykwv6/vZIE0jJT8bNlKTRZvDXKgTAetDJO/xZDv6cAbg32aDv7xLSYyrrN+FuyuxBpBn4tSxiIjmBU824SfTyDn+WAj9n2pk31vug388y/GNaLFkywifx0O+nt8lFOKoKUZKNWnnaz+kd/gxDfmbjr2V3/+9lpAkkl7ztf74Jh76/HSTX59iEqf283iHWJwwCL296mDSB5Mhj/BINH2x0HoqfX2ZqP7d3iPMJA+PM+xGTDPlYRZpASvIF/gmGhzZ4B0N5bjVwtZ/dO8T4hEHyvu9GGEHJKmFCzUcjqnSva+uCg+Bklqv9CrxDFp9QbS1Nt5AmkLJKZ5ovdxhRunJlTRzJ8GSvZ5nar8Q7ZPAJldfSNPx9A2kCSb2yPLHGyx1Gk85SWB0tKRXJ+DBuEqb2K/IOYZ9QN4K3EW8bSBNIWeUOkabLHUaTlYUlozzdKM5GrUztV+YdQj6hdkC3kW8bSBNIWdVMvNloRJGODVteChlF0TrI1H6F3iHJJwzOWCJmMuplC+lx5qqRJCQLXMNcQkEcxFzA1H6l3iHBJwyVlk02GfW8hfA4F7+YpERB+5Ysnl2TtPA4V/vVeodonzBsWnaPftlCmkBy1BLJCYL2HVo4v6Ck/Yq9w7j3kD5hGLVMeNhDmkByNbasFkkB1zBna7+m+w7qXsvE+z2oCaTPF9MyIdD2H81ZnWJrv677Dmpfy5TDAdIEkkMQtEoEtOvAjN0JtvZrse9g9AjcCCMoGYLjOpgqdxgpPppyOMTWfn33HdwOatmNw6OFSpGnh6Fyh5Fi8v0BtvZrvO/g9lDLtN2hh1WuQMpSEt3MlDuMEhMe97C1X+d9B7eLWmbsTnCg4j2XsuV0NxFphBjzvIOt1VrvO7h91LL+T9+RDRXvbyJ6mih7EB3+jpoJV6v13ndwO6llg59+8IqC929wqPj0im9ueZWz1Zp4h5HFzY2//wUnVK5Acmn4DDE0f/SYEfZt//NtIYqI8ytBXI6knEt++uk37nrJt34m8hXpXbWWlWJ5EoFclsSS8oaXH/7jpS61TLzf040ab73VvW70qBtwXvnyy1t9/R/Y2rabWlb9+w+UrkDKUktGMQampcm55OlLsYPikSypLA32SkpsWrgaOe4RcxwSB3kbGxMHV8lsmcuQJWKjk/y0UFVSXCOmtDxBpqChJItpIusWlRYbncSoRUah5CQznHA3W+6QSeF4jY1O0tTC9YtjX8vpw9ibKnfYiqPk2O/Y6CRRLbK0kgyOLbw6jXE2BsodMq05irExSa5abqZKF2xy6DDaGUf2PASTNR5djnWnY2OScLVwCBwPOeYz8UPQMwVDMOQ4j41JItYiq4HjcT8RNx86BoAx/RwbieSshaOY6wyfkXm8Is5pHNewkUjYWshJKM6ImpjDO7qkXMexkUjgWt7nypZsJ7r8Gk34TMZGIqlr4dJwfZFskLRpxjhyMBGy/mEjkeS1PF38TQtiGKXcIWMgycXan/i1yKgVdVu4WWIuZn6fhlHJHfKZhbXfDrRkHJc4xhFhUcgdCpxk1WHttwctX81gBrXjHMLT0F5kcWzE2m8ZWiQSyUGmr8A2bKehvtuv32Kttg8tN8te+ivi9Gx29mHC/7djrbYULVQK4jnHEknqePTDR0qVhbXaYrRwNRY/pRiPbrhgQiNj24oX21zsNbHfDv/ad8feO0p17t4T292YkAh/u95Y5WLHjX0mgPUWFew146zlAlOPIkcF1+1+Ii5EuUPBiojY1ppj1x2TXxTemPqGf9W+7nljzhy3lj022oqQt6ujceAEtl53bbfRUph7TzSX6qTDyFF4BXka6iuB4nlEbNvqAsZV206EvF17bWB4a4MLY+NSQkiIgxd3YBd87vCPHnMZQjQs6ii6XihRnzyjs9C6XUsm1KifMOMHDJNqkaWV9U1ykOnLWAWbO3RcSkQsmpBA8dbEQOvWrHsB4VtLFGbHXVxKrlfPEE3PDi53SGdoRCxa7UKR+uoXWrdm4wtF6ssdjI5vvUh1n2JBziUP8jYO5tNHipURsWjFhCL167RuzVoLRWoLFxim1kJVKThMNB+Prn4axLGIWDTrejVOeqMt0Lo1CzemvKHGYRMYJtci67dk0mjMdJNKLkfFog0Waq/+9TdC3pqtL5ToeTHpImYoFlc5n8ln6yXluBcZi66Y/Abe/uyKsLempdjmRg3n+BmrJ2IGd0l+Ms20ksp6GR07xjXWTGx+sfXG1VdvtbHlYouNZ5557berfSp787EItGbR4LvMu17/2nRj1YuOHjGDt06X7FoEE42kA5jl9qeFK1PgownXhrXQArXckKeZvtzhANZCG9QiQ8i7ztpyhwNYC61QyyWCVrpyhwNYC+1Qy3DOw+Q1rTscwFpoiVqGc9pHSs/agwGshbaoZSjNPmItS08GsBZao5Yh6oqVR+jAWmiNWoZzHSQN4QNrofVpudkf/+wPoXfT6aS6vPzi0covv0vlpVvNvXD9k2aksl5hLbQ6LYOxK7agB53wvgYvdQdGptF79ZdNv/pL71f+eWJr3WhjHknefkaivUPZe4210OK07EUf8tx7WHk+Mo7e9PT0G//AAXW/jfrJAd1Yp3MJ0jukeo210Nq03O1FXocrr1eDlw7o39rzvOXawV0Kyjukeo210Na07Ii8AVfeqDqpbdS3Duggxjukeo210M60DMS4QC5Z/iNw//025v8OzKu2qdsg+dXHW7AWWpmWwbgtACXLR6fefR93LeT9I8/+R0kvPj9ojWQCVLL8+al3cTVn0+PX/d3UIkLmHgxgbbUxLaUAlsy/o5DN1ozeVsjUkwGsrRamZQcEuGR+dO49lewWePmXwdcuyTBywBL/ql7JZzI/Oo2+SrbZRn10zcVbtIF6h32Qk2cyPzLNgdL99zswLzFP73AfCMQSxjAy7oXa/c9mLr8kGKd3OK7mDy/UyLDXKl46oDNM0zuc8kq+kMfy3Hh2BPfbmG+bpne4C0q+AGMZGfYeC6SNWmGY3uFWqPjDg6K434F5mmF6h7cp8tuoKO63UXcZpndI4mFR3G9jvmCW3uEASHBR3O+AvjRL7/AfCjieG/ae4n4b5m9m6R3+QyDxDp8dzp6iOaNf/pildzilgPAOD1JkM/rlvVl6h+cglHd4kCKbhtc7hukddkGG9A4PUmTT+u2gYXqH4xKsd3iQIpsev640TO9wZ4jQ3uEpimytfu61zNzhbBd47rDP6eIhhlrMX2pu/kXZZu5wcFFEIXcIR2AEZaPuME7vcFTx0ksKuUMwgAG0jdppnN7hzae9hOcO3UDgwHzCQL3DUYDnDr2QY6P+q9NPbYbpHbo/ekZzh8GQqCcO6Or6euP0Dh999KvTsNyhP6Q4MN9yvwvdO7QxLVeehuQOAyHDAX3tbT9A9w6tTMsY0JU7fNaB3Gqu+w42F6dpyR3amF9sHT80muy+g7MXLDTkDm3Ui5nLXGC2+w7ePBxUc4cOzN9szHOr7m5DjHffwdlDCpXcoY35pwO6oU4/5xnxvoNfjYBB0Hvu0PfH5jboZRvz9K3jORP1nj3RO/l/foX5SFlnXFllZax8Mh5//NxVV/pqK92/nvLRskr2JVdZ3mqurObKLtXT7xXLPrS0nJyJS+KpCUuy8skszcsKkbtISFujOF+Vl/3Dh/ASBZ8C2UbBp9Eni+vp3s8T6f63fUK/z0/pr4OZwVsy7v8OT9mPdoX3ulKY1WD/OiZ/LV0zYVjhqaGFu54rlX1o6Qywf7EeXEtC+FG18IYaggrM/x0WR8gVhGfDkIhrw1ptFVp8NvIaEkx/BdH6KgUR8Cb0bgiBRkH0kox7w1ptH1qmaaDeFvPFzCckwJvQ11sKkgXTfTKeDWu1fWiZpo7QlvCxn+D9pgTjTjLeDWu1fWiZpmuGhPBUkDRByRFqqT4b1mr70DJN1wxZwvd+gnwTi3kOtVQosFbbh5ZpumYorJaiA/JNBOFJtlL7sVbbh5ZpumYoFEyLIN3IEn7EVmo/1mr70NIR6JqhsFp4F2SbVTN/Yyv1pJmAtdo+tFyoa4aOJhiPQrYZG7UTJiFoi+IaeqIHriuEB+LWz7iWu90bIbtL1HN3tjM8yD3rRRzI7e3IoWuG/kgQnodsMza+Pn4mBGnHbWc7kZP+RKwZV50JR2XmhKfA6uxnXNGHoG3vtbpm6JuLkG3GxpzjZ0JgdlRC5gTyWOztNOxUmfU+J5GXBaSB2t5rdc3QNxch24yNf2wBveJ6gha5ciyuCjGlsACo6exdFaDt7Qh0zdA3SYLz9UCwMefbIOyorCehjSVLQ4ece/NA7kHZ3gt1zdAfFuE5KNj4+qSZoN+Osis8CX0s3TEeLqTcdQDdOhOM7e0MdM3QUUF4Dgo2al0zQbcdpfVaNcbRikMEyF1r9rYVB2F7/TbqNBkMNur9eu1InddM6P+q0CDnrj37/4oAbO80XTMEBxv1fq121OBJtIzFpWHhtjeh0TY2nsE0TTMkCS6Km0Y7UmeM97YMBakzQ/xQms5gmp4ZksS7QTTyDktyvD0YX9uJ2dk9ONb+eXZ2B87UQD4vFyGgpOxiIPeffz72ST33S2vjmaXuikUYc4fKsUji3cM+tPIOC9ruVMNaewCDSJJI7ETofsyesaTd06XcKyi7E8g9QdmLuZPeRv+6Ley5Q0m8e9gXWnmHjhJlORupIkf98xmp8AV4yjtHIeVOy/5n0rveabeFO3eIKqCesFHvDwq79gktcjCWfhx0hHNwFSr8QyH3JrKPLmWE65DLw5w7hBVQT8JQJ+8wtUp2LUqa1OjZTHkJ5iu2pVbJP+xHQqIay2ymPvJeHt7cIa6AesJGvT8IGp8joYxl1irfW6swIH4u0qHel7z6yBvW3CEqyDtko96vA+W3lp8kuiRJP9aU5+qYZ06lhmORLlG0H2teNeafwp47/AHyDkONvEMVfynRRuhjTnXCSvn/Ef5gpFHUyF11wro85LnDHyDvMNTHO8wU7DG9Gl85rrgC746UX5mCbWsl5q54u114W7hzh29B3uFRbbzDShFbGemD+qDq/ptdlULZD63k3BVH3n+FO3eYJDgPeYdJxn+6eIepwhmNcF9S3IDVwKxU4Yxmcs8qjrz9oc4dXi18FvIOE0JfNPEOU4s9TMyIorbHN2Axryz2MNIL9TGLj7yXhzl3mCA6CHmHCeHHmniHLeygMcIHD+oip5Za2EHNcLc9PPJOC3Pu8GrGfZB3eLXwGT28wxi7blCWvTMPdsGoGLtuUNF3/0tQRYDXHV7FuKweiKsaWq+Hd2jxjzAqqz6Jz98xm5Ys/hFGZdl0PAOZBnfdYYp5FBTVAmO08A4L6LZh1eoavnljUwGzum1Ylm2DR+UCu+6wmum/VUEGFFt+IFUw/dHAO0wtnG/oh1mlwusWCialFr6rLJuWJSU+8wZ13aFgvF4PpmA8rIF32AN4v/yzeUk/4AykZ5Ccu5zVrHnJn3AG0gd13WF1w7PgsASG1HuHMfQwAJLkZ7gdNbAohq4b5/IdbkcWzHWHltDP9BGy4NimIEgw3VbuHbbQbuIio3zqDHz+wCD0SwhnXdM8vsPnD8Fcd2gJb5DtO/irau8wtWg3+bnpeNuLJYMVgkmJFYNlinGFchuW4fRLX/CAceQ22/Qu1lEsHYwPVk7c8vrYQnkUl+F1XBXG3KEl9FUcIRfed9D7sGLvsEB60dzu1A5rJXa9cewMzzq63thnY6OLhYXaeG4Hmn1z/FkqkBqou5OP78fN8PTy+Df23Njw4jO18TwIj+RhzB1aTLOl+w7WpxSkC6YXar1DOFd+rJkol2jssjH5jV7WUdt/YmIgQSWM5tH0S8qeJTjltgdEXt/9e+njO+h91AX0trwtfLlDQXi2SkEIzOF6NwVBt8X8W6V3WKKIyiaMhXNriB0H71i6oXAMXuN0IXqJ1EDk8b2XXnp8V9jzHjS2EH2aDgTRE+hroIvP1cwTkoz/FHqHLRRRm26VRNcL0I7aFhfuDWlXPyyafeMM+t7SPTdd4/reeunjuwR4z9sPi54/hC13OPVVLQRqUNS/WyU8KcH8W5l3mCIZmYStLhReDfvsaAP4FOw6XIXLnBRxNCB30Pv9d7QLeM97HZ14Lw9X7vD7wohGcvhwWVv0JJleqPIOC3SJeIlslw2lneEhE50Feqq2D3DylTdLFbpEvER2rtKbwcNnXI3ueY+hE++/QpU7LLzXx5O/8IQ5/O7VFWQIogOKvMPuALrQD+q3breheCw8ZEabQF+tNYDqCqbAL+d4xp2S/UeK1wIOmQHvebMc5B6i3GHhTVl4W/s3DHtDVoIgGLCEryjxDjsDHCDHqTa8UD4V2nuHBLBdl9h8+jgDLrvHqd5RvhS0x44quOc9aOjpY0egROFNLEzXJvsSkqpQqr+jU9hX+8LHLkx9+689d1ih8+NoAFm2qGZCPxTa6AJslwN+F197wJoY3XU9Cfjn47viS2+DC/DA64DfNhjCkTuc+lFZYbbjxlQJb52M6ZT9aDf1Y2sK73Wl8F4ZU+Yl6flYVc+ruliFV/Wv/vXuCW/FQ6qmVEOrxr/q46jl1sH/iy/+guguBzAkHDbBcCQ8+Y1FC/B8ZRCiezVflGUnL9L2zjSGlt7cSneVfMeQcI06X8/5F3jgfeRcb/0VpU5f2qL+2Jd4/XEv8YSXeOJLLFXhVeOdl0t6Pirrfvvb/dH7rrezPfeaN3UkfBr++w7DeGJU17tQptEXgwcswRjMA9bG8jj4rusiDdRKvkOanzXufYcRjMRgOGaGDuq1JRvYyArOmZb0fxivPqsBl++Q5puNe99hiN0Q1dUSqki98wY2ssRPg+LnO+DfBRoQc4c0/z8y/oVnSYLHENV9J/RQ757RVkCaBWrGwLCkc7GD5y3qSLlDms8627Q3noXIh2iHmhqoVw6wq29MsGFJ50I8WFMG5A7teb81LKMxI0RodM7URX3bC+ziq6C7YbnrQWh0ztRF/XrswEt0N+xtpxH4Y6Oz6YUu6gfOwC6+5pliVtJp2OhsdqGL+kEzsHM2wUTD3ng+QTQ2Ojvv0EXt+DcgzVmehWYlJaKx0dlthy7qJ72BnbMJ5hn2vgPmXUtsdPab0MXXc15FNGd51pmVlGiKjc6BE4rAbgFory1YHRX/QiM/RzeI7OAJbczpAERzlmeXWUkFnbBT58NmaKP+G7TXdthh2PsOmKMnRPa+NuaM6wFde8+z36ykgq7Yedet2qg9BO215xr2vgM2u7YQ2f4T2vi6tYA+ehGsNytpnpbYedeb2vi6tQe013bYZNj7DthEMkR2sTbmSIA+eiEWmZX0DOy8a/cNbVxZhfbaDkuj4l9o5EuCsQ9Pt77QRe3wCeyTN2KqWWnkXQR23rXFhbbzrkMG2EHbcTPMSprDARudNRK6qO+6AWmuCgaZlb6RzhUbnWlt1107bWAH7f1ujVdpSlRBo7NwoYv6WglIc9Uh3qz09QmqoNE50KXtuusx7KC9nyKzUsF7aHSqh8/QRG2cwDSPwtKwNBzeYwfeliY9L8YKTPMXzEqJE9DoVH/RQ32/CQyiyLS4fAf8a2s68d6CYbmVCmZDVMfC5De0UF8lwEaWeGhY3L736p+cu7r3z2AjO8ut9Ife8NS2N7RwxIQEbGQFC8yKx3fEv0+1eAlMXl8eM/mFZ0lD0BNUQ1Q7RdcLDdQnNTCqgkSj4vG9N//k3DXseV/HSHJ+X3dA4rovfrXuQQO77wAR1J5mUjy+g/79oYGPQDYsv687IDHOD//afUOZY2d0AnjAIi6ZFD/fsT3vHhuqeHwHNH83dvIL0ZLasBEoMLI2OGSgSPcbSwdouyTdDIqf75h/STscPqFG0XeQ5Oexk1+Y5Dtcxsiy3+5WYvIbEwIUopwxMCg+JbhcBfe844ojZ6hQ9B3l0XsMS3P0AMmyTschMxToerF8gFIldpqYVNAVPfBmvx80Q4HrZwNIubP8yiOP9DYVTgKSZS2w7QbMoTsWK2AEWkGIiUnHo09IQLLs1a02YN69F+anN3l+4ZkdNxHDpeWZ496AmPzG8y0FTPV+cyJJwTgMV82aAVH0HSb5junXHXqwx1QgBylVW7FR4oQ3emXyjB02FimqOITIxJqZdLDHVDg5TFbyvVd6ZhR9x/nh7FjKL1xLEkzG8NSnqyYu7n7Dh9qBO9ZPjC2qClQFNwxNo89x02C8vvvwwn471ktcrdSjARpsv+7QzwoyESt9S8LSxeqJTS62udh+Y9uLLS/WTYxPzFLUJ1AIAk1N3/kOWSA+vi9TrJnY/GL7ix03rs/WTqyQuFRR3ydEoLnvO7Qg7UFsnPRrcVhmbPoaDmku34P3XrDM5PcdmjgaCgR/jP54R78IBcSfZoyj5V/YltSMtUAaAhzUOdfc3Lh8DwEC9S1mxluSBEIZOJnDAnPj8T34PS8x18z4lWBm4Ah3z/jP8evKwCHuzoeO4UnfEpwMGMG3kc7J2Pj5HjDEN4GtkemlchhcGygOhaPxNz5pevbzgSIodPAyP2mjyWPl8DZAHGqbXZy58a1FMCHeBIigVhAZB/T1NTlH4d4GhqDUcUnmppdqcTY3BgZRysTGxXMHaXVGgisB4SBtdmExQdoY4bHIcy0g6kRgfDx3kPHoC44EgnDpI5wHgrkvQOc5FgjEl2acY+W5gxDDiEb9OJwZ7rHGMLeWWefrhzjFmEbUq/Au6VRBrmYE9Y4b0hcruHzXDFFPDIyfZw8xGjNio0ClE8GtvPOPF7y+64S41YJ3LD16CiKQeKSNcwTDGvGCn+/aOGdWXD15tD94dHL0dVyGFgTFgtnCmcYNPvWWoJdDuhaeeu3dGHvwbFfl6KZ+DYKQCybPS+MH3x84dLpRAR/f4+65w50qWCGQKUD8v1/Q9dkUIl60NBGZZ7WDDMTre+R9icbfkkm0ItYTHwkNguA3cYDo1445NmIxpGWQ0yv53jtu32P0ucMxVpKOrwkOES8FJYJG10YoBRXPEGcFS4l+OTyKIxaT+PlOlJzvQqB0qLhacLboezw/d+CrmpxjzvnlsR2CITZisanlrRZnc+ZI5/RHj7kBnzuwXWup+EeKtcautWCtsWstWGvsWgvWGrvWcop/NLDW2LUWrDV2rQVrjVVrKQPIHVb8zx2WAeQOK/7nDssAcocV/3OHZQC5w4r/ucMygNxhxf/cYRlA7rDif+6wDCB3WPE/d1gGkDus+J87rASQO6z4nzus+J87TAE=;" parent="1" vertex="1">
          <mxGeometry x="40" y="355" width="53.78947368421052" height="53.78947368421052" as="geometry" />
        </mxCell>
        <mxCell id="VmoYGuIrsJqLHQtWDySe-33" style="edgeStyle=orthogonalEdgeStyle;rounded=0;orthogonalLoop=1;jettySize=auto;html=1;exitX=1;exitY=0.5;exitDx=0;exitDy=0;exitPerimeter=0;" parent="1" source="VmoYGuIrsJqLHQtWDySe-3" edge="1">
          <mxGeometry relative="1" as="geometry">
            <mxPoint x="190" y="482.0000000000001" as="targetPoint" />
          </mxGeometry>
        </mxCell>
        <mxCell id="VmoYGuIrsJqLHQtWDySe-3" value="User" style="html=1;verticalLabelPosition=bottom;align=center;labelBackgroundColor=#ffffff;verticalAlign=top;strokeWidth=2;strokeColor=#0080F0;shadow=0;dashed=0;shape=mxgraph.ios7.icons.user;points=[[1,0.25,0,0,0],[1,0.5,0,0,0],[1,0.75,0,0,0]];" parent="1" vertex="1">
          <mxGeometry x="48.64" y="462.58" width="31.36" height="38.42" as="geometry" />
        </mxCell>
        <mxCell id="VmoYGuIrsJqLHQtWDySe-35" style="edgeStyle=orthogonalEdgeStyle;rounded=0;orthogonalLoop=1;jettySize=auto;html=1;exitX=1;exitY=0.5;exitDx=0;exitDy=0;exitPerimeter=0;entryX=0;entryY=0.25;entryDx=0;entryDy=0;" parent="1" source="VmoYGuIrsJqLHQtWDySe-4" target="VmoYGuIrsJqLHQtWDySe-8" edge="1">
          <mxGeometry relative="1" as="geometry" />
        </mxCell>
        <mxCell id="VmoYGuIrsJqLHQtWDySe-4" value="Driver" style="html=1;verticalLabelPosition=bottom;align=center;labelBackgroundColor=#ffffff;verticalAlign=top;strokeWidth=2;strokeColor=#0080F0;shadow=0;dashed=0;shape=mxgraph.ios7.icons.smartphone;points=[[1,0.25,0,0,0],[1,0.5,0,0,0],[1,0.75,0,0,0]];" parent="1" vertex="1">
          <mxGeometry x="193.72727272727272" y="362.6842105263158" width="25.90909090909091" height="38.421052631578945" as="geometry" />
        </mxCell>
        <mxCell id="VmoYGuIrsJqLHQtWDySe-6" value="User" style="html=1;verticalLabelPosition=bottom;align=center;labelBackgroundColor=#ffffff;verticalAlign=top;strokeWidth=2;strokeColor=#0080F0;shadow=0;dashed=0;shape=mxgraph.ios7.icons.smartphone;points=[[1,0.25,0,0,0],[1,0.5,0,0,0],[1,0.75,0,0,0]];" parent="1" vertex="1">
          <mxGeometry x="193.72727272727272" y="462.57894736842104" width="25.90909090909091" height="38.421052631578945" as="geometry" />
        </mxCell>
        <mxCell id="VmoYGuIrsJqLHQtWDySe-37" style="edgeStyle=orthogonalEdgeStyle;rounded=0;orthogonalLoop=1;jettySize=auto;html=1;exitX=1;exitY=0.5;exitDx=0;exitDy=0;entryX=0;entryY=0.75;entryDx=0;entryDy=0;exitPerimeter=0;" parent="1" source="VmoYGuIrsJqLHQtWDySe-6" target="VmoYGuIrsJqLHQtWDySe-8" edge="1">
          <mxGeometry relative="1" as="geometry" />
        </mxCell>
        <mxCell id="VmoYGuIrsJqLHQtWDySe-38" style="edgeStyle=orthogonalEdgeStyle;rounded=0;orthogonalLoop=1;jettySize=auto;html=1;exitX=1;exitY=0.5;exitDx=0;exitDy=0;entryX=0.05;entryY=0.5;entryDx=0;entryDy=0;entryPerimeter=0;" parent="1" source="VmoYGuIrsJqLHQtWDySe-8" target="VmoYGuIrsJqLHQtWDySe-9" edge="1">
          <mxGeometry relative="1" as="geometry" />
        </mxCell>
        <mxCell id="VmoYGuIrsJqLHQtWDySe-8" value="WAF" style="shape=image;verticalLabelPosition=bottom;labelBackgroundColor=default;verticalAlign=top;aspect=fixed;imageAspect=0;image=data:image/png,iVBORw0KGgoAAAANSUhEUgAAADAAAAAwCAYAAABXAvmHAAAABmJLR0QA/wD/AP+gvaeTAAAD1klEQVRoge1Yz2scVRz/zMxm11VMm5SGpmxLabVWKIIeLEIuoqXai148CMVDlajQQ09qpB7Ug/4BIsSTINpDoRVRUkkVEUSENDZ7qY1BCY2tTbbpbtKdyc6P78fDzu7O7LzJrpDsRJwPDDvfz3vft9/P+77vm3kDpEiRIkWK/zO0CDNWPA6P4xpZAAQgARIaCYAApc0mNJ9r2X4/NO5VNgFIyNYC47fsJrcADaPm5ycmguHqEQGCcQAFgG0NfoAh1S1O1S/MtYOK2VP38/+zoImMt7dmFA4FgBh5fBgPPziIqeItXJn5GwAwcqSAQw/txOWZG7gy/RdA4PTJw8hldYgQHgUihJAQCd97pG9L6Ndr9G20B+4b49k1B79cuApA29MebTQDPh7Yvx1V28PuPf1N7sCBQVRtD8N7B5pcPmfEDbFhyGQb8xzNUFQA60tkqriEUsXG7Oxys+nyzC2UKjX8fq3U5Kw1b6PjjcC1XaiXl6qI35ih5hdY5wIOFKGioDewgJt29exLoZgVS2j9wgwXsMq3O65jAbPFaXHDQJGB528wpuvWwJe7tU4Z+G8hFZA0UgFJIxWQNFIBSSMVkDQUB5rkQBGIXYOsWaAINF2Hfk8eejYHTVfP9ZYRIHYNdqWExcVLWFkpwnEryBj96L//EQztehq5bTuhZ3MRv+QEkCAJei48y0RlaRo3F7+G49ypHy1A2N5tLJW+R7k8jeFdz2Fg6LHIMD1/nRa7BvfuKlynCscpw6z+icrqrzCt601RrV/URfpcPr8X5t351zwDP2cdd2HhlXPLPRdgL5dwbfZdeJ6pDLJ+mAsLieXA2z1fQiThumYXQaItG+E+PrcjkRqgyL8JUsG1/BISwNiA4ji14IR2IYrEBNlWD+gsrucCdMOApuUgYsUH3mUhgyj3PgOGgb7MNrhON4W8vjiS86rn88Jmxq9l+nDfvfvry0gEFAauKCcRLmBTfogK0DAK4PpmCTD6shjccSQUkHQhJMoJPBefRj+Q9QhDn7xwEeSxuK1UtYxChSyYWH1z4nhir9OG7b0qHqsdZ5sEKf7VFGDq4pwCEjwP3Dx1fp4aX2cdqiDrdkCcXw8kZbQydukPANj8j/vrwPrmajH/7CEh+eR6T9/gLkXIGfOtyY8bYyQqAACsid9+zB07uAbyKdL/sq+uB1Lwnvn25PtB/8QFAEDt4uxP2aMH50AeJZlT7PcrFJy0zkx+1O6b2C6kwvYPntnn6vgC5BOBDEx5uv5ibezbOZXPlshAA2vfzZXtkUc/yxiWA8FhIT+03IGXvXe+Worz+QeJZV8UK/wz/gAAAABJRU5ErkJggg==;" parent="1" vertex="1">
          <mxGeometry x="281.8181818181818" y="408.7894736842105" width="36.88421052631578" height="36.88421052631578" as="geometry" />
        </mxCell>
        <mxCell id="VmoYGuIrsJqLHQtWDySe-41" style="edgeStyle=orthogonalEdgeStyle;rounded=0;orthogonalLoop=1;jettySize=auto;html=1;exitX=1;exitY=0.33;exitDx=0;exitDy=0;exitPerimeter=0;entryX=0;entryY=0.5;entryDx=0;entryDy=0;" parent="1" edge="1">
          <mxGeometry relative="1" as="geometry">
            <mxPoint x="419" y="422.6594736842105" as="sourcePoint" />
            <mxPoint x="485.51" y="321.11" as="targetPoint" />
            <Array as="points">
              <mxPoint x="439" y="423" />
              <mxPoint x="439" y="321" />
            </Array>
          </mxGeometry>
        </mxCell>
        <mxCell id="VmoYGuIrsJqLHQtWDySe-42" style="edgeStyle=orthogonalEdgeStyle;rounded=0;orthogonalLoop=1;jettySize=auto;html=1;exitX=0.95;exitY=0.48;exitDx=0;exitDy=0;exitPerimeter=0;entryX=0;entryY=0.75;entryDx=0;entryDy=0;" parent="1" source="VmoYGuIrsJqLHQtWDySe-9" target="VmoYGuIrsJqLHQtWDySe-28" edge="1">
          <mxGeometry relative="1" as="geometry" />
        </mxCell>
        <mxCell id="VmoYGuIrsJqLHQtWDySe-43" style="edgeStyle=orthogonalEdgeStyle;rounded=0;orthogonalLoop=1;jettySize=auto;html=1;exitX=1;exitY=0.67;exitDx=0;exitDy=0;exitPerimeter=0;entryX=0;entryY=0.5;entryDx=0;entryDy=0;" parent="1" source="VmoYGuIrsJqLHQtWDySe-9" target="VmoYGuIrsJqLHQtWDySe-30" edge="1">
          <mxGeometry relative="1" as="geometry">
            <Array as="points">
              <mxPoint x="440" y="432" />
              <mxPoint x="440" y="505" />
            </Array>
          </mxGeometry>
        </mxCell>
        <mxCell id="VmoYGuIrsJqLHQtWDySe-54" style="edgeStyle=orthogonalEdgeStyle;rounded=0;orthogonalLoop=1;jettySize=auto;html=1;exitX=0.51;exitY=1;exitDx=0;exitDy=0;exitPerimeter=0;" parent="1" source="VmoYGuIrsJqLHQtWDySe-9" edge="1">
          <mxGeometry relative="1" as="geometry">
            <mxPoint x="398.5652173913045" y="581" as="targetPoint" />
          </mxGeometry>
        </mxCell>
        <mxCell id="VmoYGuIrsJqLHQtWDySe-9" value="" style="verticalLabelPosition=bottom;html=1;verticalAlign=top;align=center;strokeColor=none;fillColor=#00BEF2;shape=mxgraph.azure.azure_load_balancer;points=[[0.02,0.97,0,0,0],[0.05,0.48,0,0,0],[0.12,0,0,0,0],[0.51,0,0,0,0],[0.51,1,0,0,0],[0.9,0,0,0,0],[0.95,0.48,0,0,0],[0.97,0.97,0,0,0],[1,0.17,0,0,0],[1,0.33,0,0,0],[1,0.5,0,0,0],[1,0.67,0,0,0],[1,0.83,0,0,0]];" parent="1" vertex="1">
          <mxGeometry x="376.8181818181818" y="413.7842105263158" width="43.18181818181818" height="26.89473684210526" as="geometry" />
        </mxCell>
        <mxCell id="VmoYGuIrsJqLHQtWDySe-16" value="" style="rounded=1;whiteSpace=wrap;html=1;arcSize=15;" parent="1" vertex="1">
          <mxGeometry x="600" y="341.11" width="400" height="309.89" as="geometry" />
        </mxCell>
        <mxCell id="VmoYGuIrsJqLHQtWDySe-52" style="edgeStyle=orthogonalEdgeStyle;rounded=0;orthogonalLoop=1;jettySize=auto;html=1;exitX=1;exitY=0.5;exitDx=0;exitDy=0;exitPerimeter=0;entryX=-0.003;entryY=0.773;entryDx=0;entryDy=0;entryPerimeter=0;" parent="1" source="VmoYGuIrsJqLHQtWDySe-18" target="VmoYGuIrsJqLHQtWDySe-16" edge="1">
          <mxGeometry relative="1" as="geometry" />
        </mxCell>
        <mxCell id="VmoYGuIrsJqLHQtWDySe-18" value="RDBMS" style="aspect=fixed;html=1;points=[[1,0.25,0,0,0],[1,0.5,0,0,0],[1,0.75,0,0,0]];align=center;image;fontSize=12;image=img/lib/azure2/databases/SQL_Database.svg;" parent="1" vertex="1">
          <mxGeometry x="330" y="561" width="30" height="40" as="geometry" />
        </mxCell>
        <mxCell id="VmoYGuIrsJqLHQtWDySe-44" style="edgeStyle=orthogonalEdgeStyle;rounded=0;orthogonalLoop=1;jettySize=auto;html=1;exitX=0.5;exitY=0;exitDx=0;exitDy=0;entryX=0;entryY=0.5;entryDx=0;entryDy=0;entryPerimeter=0;" parent="1" source="VmoYGuIrsJqLHQtWDySe-20" target="VmoYGuIrsJqLHQtWDySe-11" edge="1">
          <mxGeometry relative="1" as="geometry" />
        </mxCell>
        <mxCell id="VmoYGuIrsJqLHQtWDySe-20" value="KAFKA Rest API" style="shape=image;verticalLabelPosition=bottom;labelBackgroundColor=default;verticalAlign=top;aspect=fixed;imageAspect=0;image=data:image/png,iVBORw0KGgoAAAANSUhEUgAAAlwAAAPUCAQAAADSgS86AAAABGdBTUEAALGPC/xhBQAAACBjSFJNAAB6JgAAgIQAAPoAAACA6AAAdTAAAOpgAAA6mAAAF3CculE8AAAAAmJLR0QA/4ePzL8AAAAJcEhZcwAAAGAAAABgAPBrQs8AAAAHdElNRQflAxoOHRljwARsAABy+UlEQVR42u3ddYAV5f7H8fcsLF2SYhEKqIQKgpQdgIKNDRZ2Xdtr/K56zWt3FxiELQImIKAYgIAIKCWKqIRI535/f+yKu7Bxzu6c+T7PzPd1/rhXr14+z8yczzwzZyIQTGpyZCFz+YkleZ9FLGE5sJp1wDKEbKoBVagI1KEOdalDHerQgJ1oTL1AewTGxEVgxVWc32UKU5jJPObxE+vL9P9VlSY0pgm705rW1LAaM6bUrLgKMVs+51umMIU/MvZnNKE1rdmbztS3CjMmTVZcm22UmYxjLJ/xU6R/bkO60oWu7EWWVZgxKbHiAubKR3zMByxXTVGXAzmEXjS0+jKmBIkuro0ykmEMZ6Z2kHyyaE8PjmBvqy9jipTQ4sqRzxnCIH7XDlKkRhxFb7pafRlTiMQVl8hYBvJ6Bk+7h6k5J3Iyu1l9GVNAoorrTxnCo0zVjpG2dpzLqVS1+jImT0KKS2QcAxjAGu0gpVaDkzifvay8jCERxbVG+nM/P2jHCMW+XEkvu2zCJF7Mi2uRPM9DLNSOEaqduYRzqGLlZRIsxsU1R+5iAGu1Y2REPS7kMrax8jIJFdPi+lnu5SnWacfIqOpcyHXUsvIyCRTD4lok9/FQTGdaW6rNJVxhN2ybxIlZcf0lt/Oox78dlkYDbuI8ylt5mQSJUXHlyMtc4/C18JnUgvs4wqrLJEZsimuUXM632iFUHcKDtLTyMomQpR0gDAuktxyY8NqCj2nL1bIqLnsiY4rh/YxLZACXs1Q7hjMa8yTdbN5lYs7z4pot5/Kpdgjn9OZx6lp5mRjz+FBxo9whray2CjGElgz0e49kTLG8nXHNk9MYpx3CacfzFLVt3mViydMZV39pY7VVgtfZi9G+7peMKZaHxfWXnCqns0I7hgfmcyCXyXorLxM73h0qjpOT+EU7hFc6MJhGdshoYsWzGdfTcpDVVpq+oh0f+rZ/MqZYHhXXWjlbzivj26STaQnduU5yrLxMbHhzqDhfjudr7RBe68kAewiOiQlPiuszOcauji+z3XifJlZdJga8OFQcIt2stkIwnfaM9WNPZUyxPCiuh+SkhDwWMPOWcCiDrLqM9xwvro1ygfyLHO0YMbKWk7nZqst4zulzXKvlOEZoh4ilK7mHwM52GW85XFyr5Cg+0Q4RW+fwpL2f0XjL2eJaJofzhXaIWDuZl8i26jJecrS4/pBuiX+iaeb1YjCVrLqMh5wsrt/lQKZrh0iEHrxFRasu4x0Hf1VcJj2stiIynBPZ6OK+y5hiOVdcy+UwJmmHSJB3OJlNVl3GM44V12o50u5IjNjr9EOsuoxXnCqudXIUo7VDJNCLXK4dwZi0OFRcIv34WDtEQj3E/2zOZTziUHHdwMvaERLsOl6x6jLecOZyiOekn3aEhKvEx3SxSyOMFxwprpHS3Z5tqq4On9Pcqst4wInimiadWa4dwgDN+JJtrLqM8xw4x7VCelttOeJHTrSruowH1ItL5Ay7Tt4hH/Ff7QjGlEi9uG7jTe0IpoBbecvmXMZxyue4PpIebNJeBmYLtfiaXexMl3GYanH9LHvaSzCctAdf2lMjjMMUDxVz5AyrLUdN5t/aEYwphmJx/Y9PtUdvivQgw+xMl3GW2qHiROlkl5w6rT5TaGCHi8ZJSjOu1XKq1Zbj/uBMe9yNcZRScV3NDO2RmxIN5zntCMYUSuVQ8Qvpai959UJNprG9HS4a5yjMuNZJP6stT/zF+doRjCmEQnH9l++1R21SNpQ37DyXcU7kh4pTpR0btEdt0rAt39sTI4xjIp5x5Ug/qy3P/Ma12hGM2ULExfUSX2mP2KTtOb62w0XjlEgPFVdICxZqj9iUQmfGEtjhonFGpDOu2622PPU5g7UjGJNPhDOuObI767THG7ps6lCFbKoBa1jLOpawVjtUBjRiOpVtzmUcUT66P+rqmNTWdrShDU1pTCO2o0YhX+ZV8jvzmcdspjGFOcThBNFP3MtN2iGMyRPZjOtL6ag91jIpR3v2pQudqJ/mvGOFfMk4xjLW85lYdeZQ1+ZcxgmRFVc3+VB7rKVUlaPpxaHULuOXdrWMYhhvenye72r+Z8VlnBBRcY2R/bRHWgpZHEBfjqV6iF/XHBnDa7zm5XuNqjCbba26jAMiKq4DZLT2SNPUiPM4jR0z9DVdJYN4lEnag0zbpTxkxWUcEElxfSyHao8zLU25lPMjeOb6WLmZT7QHm5ZK/JCxMjcmdZFcx3WL9ijTsAeD+JHLgiheFdE1+DgYhU+lvpa7tSMYQyQzrvHSSXuUKWrEAxytcIX4eLmEb7QHn6Iq/GS/LRp1Ecy47tUeY0qyuZTvOCbQuLGlY/AlL1FXexGkZDWPa0cwJvMzrrnSzINXvu7PY7RUnkcslVt41INHLNZnnl1Db5RlfMb1gPO1VZ3+jAq0awtqBw8FI9lJO0aJ/mCAdgSTeBmecf0pO7FSe4zF2otBNFMvrX/8Jf14XTtECZoznSyHlplJngzPuJ53vLb6MNap2oKawWAepIJ2jGL9wEfaEUzCZbS4RJ7VHl8xajKY/kEVp2oLIAguCz6jkXaMYj2jHcAkXEYPFT+T/bXHV6RtGc6ezpXWP36Xw5moHaJI5ZlPQ4eXnom7jM643N0vN2WM07UFDYLRHKYdokgb6a8dwSRaBmdcy2R7VmuPr1DtGJb2w2k0rJe+DNIOUYSmzLKHORs1GZxxDXC0tg5hpBe1BRWCV7lQO0QR5jBSO4JJsIwWl4s68k6oj6nJrKzgseAS7RBFeEU7gEmwjB0qzpWdHXxkcSs+8+7lppvkJCev7KrF71TwbFmauMjYjGuwg7XVhA+9qy0oF7zCIdohCrHMruYyajJYXK6py3BPf8KvELzBXtohCuHqDwcm/jJ0qDhLmmmPbAsVGEMHL2sr10Jpy2/aIbZQg9+p5PEyNf7K0IxriPa4tnKP17UFDYNXKKcdYgvLGaEdwSRUhorrPe1xbaEnrv42l7qDghu1I2xlqHYAk1AZOVT8U+o59TCbnZhU5peLuSBHuvGxdogCGrLALkM1CjIy4/rAqdrKZmAsaguygpdpqB2igIVM1Y5gEikjxTVce1QFXE+nWNQWQIPgMe0IWximHcAkUgYOFUUa8rv2uDbbme9i9stXT3lfO0I++zMqVkvX+CEDxTVB9tYeVT7D6BGzL9ZsacVa7RCbZbOImjFbwsZ9GThUHKU9pnyOi11twc7BddoR8tnA59oRTAJloLjc2ZCrePJqtHRdRwvtCPmM0w5gEijWxXUVjWM33wKoGNyuHSGfsdoBTAKFfo5rtuyiPaY8VZkX23cui7ThO+0QeSqzzJ4SYSIW+ozLnQOHC2NbWxAE12pH2GyNw8/GN3EV2+KqxL+0I2TUybhzG7sdLJqohV5cE7RHlOdstovtfAugXHC1doTNXFnnJjlCPse1SaqzRntMQDlmxfTE/D/WS1MWaIcAYDe+j/myNq4Jecb1gxO1BYfEvragQnCmdoQ8P7DGvcfdmlgLubimaI8nTx/tAJE4x5EndG1iunYEkzAhF5cbzwqoztHaESKxU3CgdoQ8ruywTFLEcsZ1HFVjf6CY6yTtAHnc2GGZ5Ai5uL7XHg+QlANFgGPI1o4AwDTtACZhQi2uTTJfezzAthygHSEytQM3xjpXO4BJmFCLawEbtMcDdCcrIQeKuaN1wU/k2O+KJkKhFpcb+103vspR6aEdAIB1LNSOYBIl1OKapz0aIOBg7QiR2i3YQTsCAHO0A5hEid2Mq0WMb60uXBftAIAbOy2THKEW10/aowE6aweInBvF5cJOyyRHqMX1h/ZogA7aASK3j3YAwI11b5Ij1OJarD0aYA/tAJFrlanXkafFhXVvkiNmxZVFK+0IkasS7KwdARfWvUmSUItrqfZo2JFqCTs1D7C7dgCsuEy0QiyuDfKX9mhooh0gsaO24jJRCrG4lqB/8bQLX+HoNdYOgBWXiVaIxbVCeyyAGxdjRm0n7QDAOtbq77dMYoRYXOu0xwLU1w6gop52AADWawcwCRJicbmw4dbRDpDgUbuw4zJJEbPiqq0dIMGjtuIy0YnZoWJF7QAqKmkHANxY/yYpYlZcFbQDqHCjrl1Y/yYpwryOS3ss4MiDjKPmRl1bcZnohFhcLtwxl6MdQMUm7QAAjrwqzSRDiG3jwn7fhR8IoufGXMeF9W+SImbF5cZXOGpu1HUyD9ONjhCLy4UNV/9uSQ3LtAMArvxEYJIhZsW1RDuACjfuE3Rh/ZukCLG4XLiayI2vcNT0HycEbqx/kxQhFtc22mOBhL4ka4F2AKAc1bUjmASJWXEl85UN87QDADUT9Rpeoy3E4qoc6J+enacdQIULde3G/ZImKUK9alR/zjWbjQl8KtSP2gGAWtoBTKLErLjW8oN2hMjlyDTtCLiw7k2ShFpcDbRHA0zRDhC5OazSjkBSH+FotIRaXNtrjwaYoB0gchO1AwCwo3YAkyihFpcLG+847QCRG6sdAHDjufcmOWI441qTsNPzbhSXCzstkxyhFpcL79hZzxfaESL1p7hxVs+FnZZJjtgdKsJw7QCR+tiRp3HZoaKJUqjF1RwXLp4eoR0gUm7UdG3quLDqTWKEWlzVg+20xwN8x8zEnOXaJMO0IwDQQjuASZiQn7fsxgY8QDtAZEbxu3YEAHbTDmASJuTi2lV7PAAMICchc67B2gHyuLHDMskRyxnXfEZrR4jEWhmiHSGPG+vdJEfIxbWH9njy9NcOEIk3+FM7Qp5W2gFMwgThHlMtl22ceEVYdX6lWux/5zpA3JhZbsMSgtgvbeOSkGdcNYJdtEcEwAqe0o6QcRPlM+0Iefa22jIRC/0tru20R5Tn3tjf+nMrrgxwb+0AJnFCL6622iPK8xsvaEfIqO/lPe0Im7myszLJEXpxddAe0Wb/Y4MrU5IM+K8T5xJzWXGZqIV8ch7WSS3Wao8qz/OcGdNzL7OlhSP3KMKOzI/pUjbuCn3GVTHYR3tMm93K6pjOuW5wprbgAO0AJoFCLy7YT3tMm83jdu0IGfGxDNKOkM/+2gFMAsW6uOBepsduzrVeLtGOUMAB2gFMAmWguDqh/37Fv63HrS95GO5lhnaEfLZnZzvDZSKXgeKqGuyrPap8PmFgrOZc8+UO7QgFdNcOYBIpA8UFh2uPqoB/8XtsqkvkPCdeRvYPt9a1SYqMFFcP7VEV8Dsnsykm1fU/x57vWoFDtSOYRMpIce3qyB2LfxuJW4dXpfWl3KQdYQv7U93OcBkFGSku1+ZccAujvJ9zLZHebNAOsQU7UDQ6MlRcx2mPawubOMXzM10ip/OzdogtBBylHcEkVIaKa18aao9sCws52uvr6G/gfe0IW2lPEztQNCoyVFxZQW/tkW1lPEex3tPqelzu1I5QiJO0A5jEylBxwQnaIyvEx5zp5Ws0Bjp2rXyuwLkTAiY5MlZcndhBe2yFeJVrtSOk7SM53aFH2PyjMzvZgaJRkrHiygr6aI+tUPdym1dzrnFyHOu1QxTqFO0AJsFCfx7XP36UFs48XLigi3mILC9mC0PlRFZrhyhUZRawjRfL0MRRxmZc0Czoqj26IjxKHy+ejtpfjnW0tuB4qy2jKIPFBWdpj65Ir9KDFY5X10NyhnMXnP6jn3YAk2gZPFSEVbIdy7VHWKT2vO7s6eX1cgWPaYcoRnNm2CvJjKKMzriqBqdrj68YX9OWoU7OuubJvk7XFpxrtWVUZXTGBbOkhZM/5W8ePpdwDxWc+hK+K2eyVDtEsarxM7WcWmYmaTJcXNBLhmqPsQSdGOjMIeN6uYaHHf0t9h8X84gjyysJNsoSlrCExWxgGbB+8xPZAmoBFahKVepQl3rUSMx6yXhxfSzuP7GpJrdyEeXUV/pnchHfaYcoURYzaKa+rOIqRxYwj7nMZR7zWMAf/JXGv51NHerShCY0pgmNaRzbmXHGi0ukjQdfRtiLx+mouJJ/l6t52fm5FsCRvBPTL4OepTKZqUxlMtNCvgBme9rQhja0ZleyY7TeMl5c8LK4eQ39lrLox53UVli5m+RJbmSZ9gJI0Wj2i9EXQNNGmcI4xvF5JA8sqsAedKYLXdguBusvguLaKLsxS3ucKarNv7gk0ul1jgzmDqZqDzxl+zMqBpu9rk3yJR8yli9ZqfLnN6Yr+9OdHTxekxEUFzwnPl2uWI2zuI6GEazUDfIadzr1srGSfcJBHm/u2hbJKN7jfUd+NW5KT3qxLxU9XKORFNcGacZP2iNNS1XO41IaZXCFrpKXuId52gNNU1fGeLiRu2C2DOYNJjp4FrM63TiBI6ji1ZqNpLjgCblQe6Rpy6Ib53BEBq7y+kqe4zVWaA+wFD7kUK82bxf8JIMZzDfaMUpQlV6cQA8qebJ+IyquDbK7N+e5CtqGozmRA0KZTot8yxAGM1t7UKW0L595slm7YaUM4jnGOzjLKkp1juMcOnuwliMqLhgsJ2qPtQyqcjDd2J/dS3mrywIZw4eMYKH2QMog4HPVC0b8MkGe4VUvZ9XQknPoo/L7euoiKy6RDs5Pl0tWm07sSRta07TEOViO/Mw0pjCFzz07w1e44xni9KbsijUygKeYqB2jjCpxHBc7vKOKrLjgUzlYe7QhymI7GtOQutSlKuWpDqxhLWtZwhJ+Yz7zHX1yaelkM82uly/RInmMx1mkHSM0XbiKI5186GaExQU9xb1XbJnUXMSjDm6+Lpkp9zOANdoxQteMKzidyo6t/UiLa5a0Yp32iE0p1GEGdR3bdF3yvdzMG04/B6Vs6nENFzp1wURGn8e1pV2CK7XHa0rlDqutIs2T86QNQ2JcW7CIq2nM3bLGmR9II51xwSrZzbkXyZuSdOALJ89z6Jsn/6U/G7VjRGZHbuAsJ27Wjri4YIi4+KpYU7QsvmRvBzZV16yQO3gggac+WnA/h6tvD5EeKgL0Dnppj9mk5Xyrra3kyAvSnLsSWFswkyPoITOUDxojn3HBr9KKP3VHbVLWiKlUt+Iq4Cv5F19oh1BWnrO4XfHMZ+QzLtguuFtrtCZNAU9ZbRWwTM6TjomvLdjI07Skv9q8S2HGBSLd+EhrxCYN/XjGaiuf9+QCFmiHcMrhPKHyxgaV4oK5sqfDb1w0ubZnGjWtuPL8KhfyjnYIB1XnDi6M/FdnhUNFgCbBozp/sElZFi9abW32kuxutVWoFVzCfsyJeAakVFzQJzhZ6482KbmKQ6y2APhLTpMz0nrbTtKMY0+ejrS6lA4VAf6SPb17AmhytONzx16Uq+ULOY052iG8cDxPRfYwHLUZF9QM+lNe7483xajOQKstYINcJ12ttlL0OnvxWUQzIcXign2DOzX/eFOkJ9jFaouFciB3x/oexLDN5yDuEYmgvBQPFQFETmSIagKztUt5yGqLcdLb6yfW6jmS/hn/WUe5uGCldGC6cgaTXydG2WEiT8slsXoQZLSa8yYtM7oNqRcXTJOOSi/GNFtryIRI3inpsrVyDi9rh/BcDfpzVAa3I9VzXLlaBq+4EMMAFRic+NpaLAdbbZXZco7l/gzOipxojCODu7QjGCDgGbomvLZmS1c+1w4RCzlcyTmyMUPl5URxwdXBedoRDP+hb8Jr6wvpxEztEDHyLD1ZnpHqcuAcV64N0o2R2iESrQ8vlfKtkXExSE5P5BO2MqsdQ9k29O3KmeKCv+QAvtUOkVgHMiLhvyU+K+fZNVsZ0ZyP2THkbcuh4oJFsq9N1FXswShqJbq2HpdLrLYyZic+DvmtnI6c48pVLxhOQ+0QCdSMDxJeW3fLRVZbGTSffZka6hzJqeKCJsEIttEOkTCN+JQGia6tG+Q67Qix9zsHMTHE6nKsuKBN8JFVV4Qa8hE7JLq2bpQ7tCMkwmIOZUpo1eXUOa6/TZJDWKodIhG25RN2T3RtPSBXaEdIkHqMZrdQtjcni8uqKxo78mnCnwLxqFyiHSFhtmcMTULY5hwtLvhault1ZdROfMrOia6t5+QcXN3+42tnPmO7Mm93zhYXTJNu9kaVjGnGhzROdG29LiexSTtEIu3OWLYp47bncHHBT3IYP2iHiKV2DKN+omvrazmA1dohEms/PqRimbY/535VzK9R8Bl7aoeIoQP5NOG1NUd6Wm0p+owzKNtzUp0uLmgQjKabdoiY6c1waiS6tpZID/7QDpFwA/lPmf59x4sLagTvc7F2iBi5lIFlnKT7br30thMQDriNF8sw53L6HNc/HpIr7URqmVXkKU5PdGkBnC3Pa0cwAGTzCfuWcnv0pLhgqJxmr+Qskwa8RafE19aTcoF2BLPZdkwo5SNvvCku+FGO5TvtEN5qz+vslPjaGi/72yswnLIfH5Ndiu3S+XNc/2gWfMXp2iE81YfRVlv8Lr2tthzzGdeU6t/zqLigcvBicD/Z2jE8U5WX6R9UTnxtbZQT+UU7hNnKg7xWisM+jw4V//a1nMqP2iG80ZJBGX7DnS9ullu0I5hCVWdS2jefeTXjytU+mMyl2iG8EHAuX1ltAfC53K4dwRRhBSexIc0ZlIfFBZWDh4LXqKUdw3ENGc5TQRWrLWC5nMZG7RCmSN/w3zT/DQ8PFf+2QM5nqHYIZx3Hk9S10srTVwZoRzDFKsdouqSxvXpcXAAD5F/28JutNOQRjrPS2mygnKwdwZSoCd+mcSual4eK/+gTTONY7RBOCTiLaVZb+fwhdsuYD+amdWGE5zOuXMPkMmZph3BCcx7nYCutAk6WgdoRTEoCRqd8C1Asigs2yOPcyErtGKqqchX/TvgN1FsbJkdoRzApa85kKqW0BXt+qPi37OCyYArHkdRvbcAZzOLmwGqroOVyvnYEk4YfuC3FfzImM66/fSFXM047ROQO4G46WGUV4mJ5TDuCSUs2E2idwrYcs+IC+FiuYKp2iMi04v/obaVVqEmyt72f2judGUtQ4hYdk0PF/A4JJvIizbRjRKA5A5litVUEkUuttjz0OYNT+KdiOOPKlSNv8H/M0I6RMa24mlMob6VVJLt6y1c7MJOS7viIbXEBbJIh3Mc32jFC14l/0zOF6XSSrZFdma8dIiOqUx7IIgf4K6Zzylv4vyQXV67P5AHejckKLs9RXMp+VlklulXK9jIGV5SnBa1pRmMasy11qLPFLHu5LOIPfmYec5jG1Jg8JbgqM9ih2K08AcUFMEsepT9/ascok7r040J2tNJKwUJpxirtEGXSkP3oTCfapHll3jwZz+eMZbLnu+q+vGTFlWutvM4zjPHwpesB+3MmJ6R4aZ6BS+UR7QillEUnetGdNmU8FbBIPmQYQ1muPaBSKsdUditmCSSouHLNlOcZ6NHZjyacTl+aWGWl4WdpxjrtEKWwN6dyfAmHSOlZKyMYyNteLo0TGGTFVZDIOAYymEXaQYq1HcfSm33tJHzazpentCOkqSp9OYe9MrSml0h/nvTuXZJZTKJNkUskkcWVa6OM5B2G8pN2kK3syLEcT2eyrLJKYa60YIN2iDTU4hIuzfiz03Lkde5gsvZg03I0b1lxFW2KDOU9vnbghbMV6Eo3uheznzElO1Ne1I6QsvpczoVpPIWqbETe53bGaw86ZQFf066IZWPFlecv+YxPGclUhV9jyrMHXTmIg6hmlVVGP8vOnsy3qvN/XFjihZbh+1gu9+b9pMfxuhVXahZLvQj/tO04m650oroVVkiulnu1I6TkRO5nO6W1vkEe5mYvHgJVjplFvP/HimsrUS6SXrxrlRWiFbKjB5dgNuMRuimv94VyLT48h/9iHil0ScXwJmuTXM84X1vluZXv1GsLGgb9gxFsrx2jRC+wpNCJhBWXiY2N8pB2hBLswEhuCiqo11aubsG39NAOUYJVPFHo37fiMrHxuuMXFvfkW7o6Ulq56gZDuYPy2jGK9RjrC5lzWXGZ2HD5stPy/Id3qONUbQFkBf8OxtFYO0YxfuOdwnJrxzImHD/KaO0IRarBh9wcuHpBcYfgC/bUDlGMZwr5e1ZcJiaecfb2+QaM4kBHSyvXtsEYDtUOUaSPmb3VqrXiMrGwXl7SjlCEJozJ2F2I4akWvMcJ2iGKILy41d+z4jKx8A5/aEcoVGvG0sz52gKoGLyKqy9ze46NW8y5rLhMLLygHaBQezJG7fr49JULngjcrK6FfLDF37HiMjHwp3yiHaEQOzOcmt7UVq7H6K0doVCDtvhrKy4TA6+zXjvCVuozjG09qy3ICl528jT926wpcLBoxWViIJU38UWrJiNo7l1tAVQIXqetdoitrNjiYNGKy3hvkYzSjrCFbN7x4JfEotQI3mcH7RBbKbhzsuIy3nudjdoRtnA7+3tbWwDbBkPI1g6xhXdZle9g0YrLeO8t7QBb6MlV2hHKrGNwi3aELazio3x/ZcVlPLdKPtOOUMCOvBCLF5xcSzftCFsYnu+/W3EZz33q1Mu3yvNaxl98EY2sYIBjz+salj+ddhhjymaEdoACbqJLLGoLoF7wrHaEAn5h2uazXFZcxnMuFVczrtGOEKruwXHaEQr4Z11bcRmvzZA52hHyeYJKsZlv5XqQatoR8vnnLJcVl/HaR2X/vwjNyRwcs9qCHYL/aEfIZ8zm6+etuIzXxmoH2KwGfrwYLV3/oo12hM3W81Xef7PiMl77XDvAZv/n0XMg0lE+uEc7Qj7j8v7Tist47Cf5RTtCnjqcpx0hYw4LOmtH2MyKy8TAuLL/X4TkSqrFcr6V61rtAJt9To6AFZfxmisHijW5QDtCRvVy5jzXMr4HrLiM18ZrB8hzGbViPN+CILheO8JmXwBWXMZjG2WadgQAqnGZdoSMO55m2hHyTAasuIzHZrJWOwIAp1A71vMtgHKBKz8+TAGsuIzHpmgHyHOudoBInEFF7QgATEXEist4bKp2AAD2ol3s51sAdYIjtSMAsIyfseIyHnNjxnWKdoDInKQdIM8UrLiMx1yYcQWOvs4rE3pQXTsCkLverbiMp9Y6cdV8Bxol4kARoHJwuHYEAGZhxWW89RM52hEAN77KUemhHQCAeVhxGW/N1Q4AJK24uuHC9HIuVlzGW/O0AwB1HXx1aiZtG7hw68/PbBQrLuOpedoBgC5kuTAFiVBX7QDARhbYjMv4yoVDxS7aARI64rlWXMZXC7QDAPtoB4hcR+0AAPxixWV8tUg7AIEzD3uJTmNqaEcAFltxGV8t0Q5Ao5g/zKYwQdBKOwKwxIrL+ClHlmlHwIWvcPRaagfAist46082aUegqXYAFU20A2CHisZbi7UDAI21AyR21DbjMp76UzsAsJN2ABWNtQNgxWW8tVo7AFBfO4CKetoBgDVWXMZP67UDAHW1A6ioox0AWG/FZfzkQnHV1g6gohbltCOwzorL+GmddgCgsnYAFUGg/+x5Ky7jKRdmXBW0AyjRLy47VDSesuLSo19cNuMyntK//BQnnsCqQX/Zb7LiMn4qrx0AN2Z9GvTPL1a04jJ+ytYOgBWXHisu4ykXimu5dgAV60W/sCtYcRk/uXBi3IX7JaO3BNGOYDMu46uq2gFIanHpP8DRist4q6Z2AOA37QAqftcOgB0qGm+5UFzztAOocOElJdtYcRk/WXEledR1rLiMn2ppBwB+0A6g4kftAFhxGW9VCvTnXFMR/R/YIjdFOwBQ14rL+Gpb7QAsd+KwKVprZLZ2BGzGZTzWUDsAMEk7QOSmOHCnohWX8ZgLxTVOO0BCR9zAisv4agftALjyNU7eiBtbcRlfufBWw4msSNTp+RwZox0BgCZWXMZXLhTXBj7RjhCpCU7c8FOPaoEVl/GUC8UFw7UDRGqEdgAg982OVlyq1ifySqBwNHLiYYJDyUnQGhyqHQCAJrjxIElHrJGpTIz4B+4PqEUb2ZM92IuWVAq0l4FPsoNdZIZ2CH5lDPtrh4jIXPlaOwJgxQXAevmab5jIJKazUeHPX85YxgJQnl2lHV3pyq5WYClphX5xwaDEFNcQB57EBdASCNyIEr1VMp7P+IwvWaMdZSv16MJ+dKEt5a3CinGz3KIdAajLL1RMxHpqI1O1IwDwLXsEiSuujfI5wxnNN2zQjlKiqhxID3rQJBFfi/S9Lr21IwDwKicnYA2Nl07aEQDIZgUVk1Rcv8twhvMhy7SDpG1XetCD/RKyX0/dD9JCOwIABzAyAWumnzynHQGAVkwNEnKoOF0GM5SJnr8Hryrd6E0vqibgS5IakdpO7IYCJrFHzNfKb9LUkZMqp/BKEPvLIX6U26SN7M7NfON5bcEq3uRk6tNbhsjqJOxvShQEe2tHAEC4TztCxt3vSG1BayDGM66fZCCDYnv3flV6chJHkB3z/XxJ/i13aUcAIJtZ7BTjdbFUGrNCO0Sejzk4njOudTJIDpOmXBfb2oJVDOIYduQamRHXPU9KOmgHyLOB27UjZNRDztRWeToCsZtxTZeXeN6J+6mi045zOYVqMd7fF22RNHDk2qJsprNzTNfBcmnMn9oh8uzN1wHEaMa1Tl6Q9rI7dyestmAC57E9F8h0N77BkaoX7KodIc8GbtCOkDH3O1Nb0CXvP2NRXH/I3bIzZ/GNdhA1y3mS3ekq70nS7n3cVzvAZoMYHstlP1vu1o6QT9e8//S+uCbLedKY61igHcQB4ziSXXlI1sTyC1S4/bQD5HMZa2O45P/FWu0I+fx9EazX57hGye18rB3CQQ24mEuoGdMzLgUtlO0dOcsFcCs3xWypvyXHakfIpzkz85avt8U1Vm5O2EPc0lOdC7mWbWL2NSrMnjJZO8JmFZlC8xgt89XS0qk3GV3Gg3lL18tDxRHSRfa12irWCu6mKTfLn77umVLWXTtAPuu4KFbP57rJqdrKv669m3F9LDfwlXYIj9TkMi6nVoxmAVsaJQdqRyjgNm6IydJ+X3o5dBgOlVlCZR9nXFOkhxxqtZWWv7iVXXhINri0BYbKpVPHAP9hVCyW9c9yulO1BQdsri2PimuBnCdtHXnmtW+W8C9aMiSGl0qsk+vkCO0QW9jESSz0fklvlFNYoh1iCz3y/Xcvimu5XC/NeNqJd+j66kdOYH++8v4Lld8Uac/dDt48/zt9vT/TdUPec3ndEdAz3185X1wir0gL7nTm3nSfjaEjp8qvnn+lcuXIPdIBN57IubWPuVo7QpkMlHu0I2ylfYEHajpeXD9IN07jN+0YsSG8SnPulk2el9d8OYRrWKcdoxj3c7e3y3iknOHY2S2Akwr8lcO/Kq6W/3En67VjxNIePElHb3/7GiLns1Q7RIkCnuFsD5fxBDnQmWdB/CNgXoEHBzlbXG/KpXYbTwZlcT63e3iZxFK5gMHaIVJUntc5yrMlPEu68Id2iEJ0YWyBJenkoeJiOUmOs9rKqBweZzded3W/VYSPpI03tQUbOZlPvVrCP0s3J2sLTtjirx0srtelJYO0QyTCb/TmVG+urV8r/5Junu3O1nC4RzuH76ULc7RDFCqbE7f4O44V159ynvR2tPPj6VV2410PvlrfSUcecvCUcUnWcQL3exH7K9mfn7VDFOFIGmxxyO1Ucb0tu/K0dojE+Z2jOU9WOPzl2iR3STvcuZU6PcKV3OT8xb9D5UAWa4coUr+t/o4zJ+fXypU8rh0iwZrQn65OnkieJ30Zox2izM7icYffi/m0XMRG7RBFasQcstyccc2QjlZbquZyADeLe9d7D5G2MagteJ5O/Ojc0gVYI+fIeQ7XFpy9VW05MuN6Wi5ntXYIA3RjAPWcmRcskfN4QztEiKrzFCc7s3RzTZUTmKEdoljlmMcOWy019RnXcukt51ltOeID9mKMC/sy4ANpHavaghWcwjlOPVj7WdnH8dqCYwupLfXimiEdeF03gilgAQdxh/oh4xq5RHqwUHthZMCz7MUnTlTXT3K0nOPBPcBXFvp3VQ8V35G+LFf8801RjuBVaqgd1EyQPkzXXgQZdRL3sZ3iQeN6uY/bvDjO2ZfPCl1OajMukbvlWKstR71Pe3TekZ0jD0nnmNcWDKQ5N8t6pVnDaGnL9V7UFkU+ZUNpxrVMTuN9vaVhUlCbwRwc8axgjvRlnPbAI7M7N3IC5SJdxhPlv7ytPfCU7cq0Qn5RBKUZ1xzpZLXlvKV059FI92vPy54Jqi34nlPYlecim3mNk8OlnUe1BVcWUVsqM64v5Ui7qccb5/AoFSKYEyySc736SoVpR67ibKpmcCmLfMwdjNIeaJqaMoNsV4rrLTnNk6Nrk+tQ3qB6hqtrmJyd8MdF1uBkzqZ9Bpbz7/ISz/GD9gBL4UVOL3J5RFxcD8qVDj4j3BSvHcOon7HqWi1X8aSHt09nQgtOoDetQ1rWS+QtBvOpp+9qaMG0Ys7/RVhcOXI5D2svDVMquzCCnTNSXV9LH2ZqD88xjehON/ajTimX+Ab5ho8YwVeeVlauV4u9yyCy4tooZ/Ky9rIwpdaAYbQNubo2yp3c6vRdcpoCdqUze9Ga1myTwpLfIDOYyhS+4GsPListSSsmF3liHiIrrnVyUmJPvcZFdd4K9fKIWdKH8dqD8kQdmtCYhtShDtWomvd3N7KCpSxmMT8xl1+8nl9taShHFLutRVJcq+VYPtBeEqbMKjCEI0Oqrv5yESu1B2QcdQgflbCdRVBcK+UoPtVeEiYUFRjE0WWurkVyDu9oD8U4qzzf0rKErSzjF6AulQOstmJjPSfyThn3de9JK6stU4yLSqytjM+4lsshfK29HEyoshnIsaWcda2R63jELn0wxajNj9QucfvK6IxrpXS32oqdDZxUyjfXjJc2PGy1ZYp1Vwq1ldEZ12o5nNHaS8FkRPqvOt0o/+UOu/TBlGA/RhFoFtd6OZrh2kvBZEwF3uOwlKtrrvRJ1O3TpnQqMondUtqqMnSouEGOtdqKtfX0ZkJKez2RJ6W11ZZJwU0p1laGZlwiZ/Gi9jIwGVeXz0rc0P6Qc3hXO6jxQmsmFPk0iC1lZMZ1k9VWIiymO78Uu+d7W1pZbZmUlOfZlGsrI8X1pNyuvQxMROZzGEuKqK4V0k+OYZF2ROOJm+iQxs89oR8qDpVj7LejRNmXjwp5R/OX0ocftaMZb3RhdFoPsQ55xjVeTrTaSpgxXLjF39kgN0oXqy2TspoMSPPZ+6EW13w5yp5umkDPc2++ifsM6cztsXpSgcm0x2iS5r0YIR4qrpauTNJeAkZFFm9xZAAij3ON7bxMWk5jQNq3kIVWXCKnMFB7CRg1VRjFTvRjqHYQ45nWfFGKF4WEVly3yU3aS8Co2o71LNYOYTxTi6/ZpRS37IdUXO/IsfYSDGNMWgLe4JhSPWkklJPzM6SP1ZYxJk03lbK2QplxrZF9mKq9BIwxnunF28W+EKM4Icy4LrXaMsakqS2vlrq2QphxDZKTtJeAMcYz2zOeHcrw9oIyzrh+kHO0l4AxaQvoQcZezW1KVJMRZaqtMhbXWjmJFdrLwJg0NeA9hgUPaMdIrGyG0KqM+40yFde1dqW88c5xTOOIAC4L/q0dJZHK8RKHlnm6W4ZzXJ/KIfbiA+OV6tzLufm+NJfLg9qREibgyQJroNT/P6WtnuXShp+0l4IxaejIgC2u0hY5mxe0YyXKPVwVysnFUh8qXm61ZTySze2M3ermkiB4imO1oyXIbSHVVqlnXO/JkdrLwJiU7crLtCviK7NR+vKadsBEuIHbQvspt1TFtVha85v2UjAmJQEXcA9VivnKbJJz7IAx427n+hCvQClfmn/pSqst44n6PEuvEr4w5YLnpDoPa0eNsYD7uDzUC+dKMeMaJQfZr4nGC0fzDHVT+sKIXMGD2nFjqhxPc1bI1/umXVzrZE9maC8JY0pUnQc4O62vy11yve2SQ1eB/pwY+m0KaR8q3mO1BVSjEXWoQ11qU4uA8lQH1rEaWMlfLGEJi1jIQu2gidWJAeyc5tfluqCRnMk67eixsg1vcGAG7q5Kc8Y1S1qzVntZqCjHLrShDbvSmMYpHn7AWpnHPGYzhSlMs9ujIlKe/+PflC/V12W0HMOf2gOIjcYMK/Fd56WTZnF1kw+1l0XEGtCJrnRmTyqXcQWIzOYLPmcc0+yxixnUnJdpX4Z1NV0OZ572IGKhA+/SIEP3sqdVXG9Jci7Wq8T+9KA7LTKw4JfJJwxnBAu0Bxk7AedyXylevVDQb3I847SH4r1jeLnYi1DKJo3iWi+tEvGSz5ocSW8OzuBC/9tkeYtBds4wNA14lp6hrLX1cgWPaQ/HY1ncyvUEGfwGpVFcD8gV2ssjwypyNCfRnUqRPqppigxiAD9rD957R/IM9UNcc/3lfNZoD8pLdXiFbhn+DqVcXH9KM5ZoL5EMas5ZnEU9pafL5cinPM3bbNBeDJ6qzJ1cGvoe/ls5jjnaQ/POnrxB08x/jyTFz6Wp/oPefbKkl4wU9RgIC+R6qa0dwsPPPvJDhtbfYumpPjq/PmfL6ki+SynOuGZK61jOBipxOpdn5AR8aa2SF3jA9vMpK88N3FjKSx9SIfIkV7Fae5heqM1THB/RdynF4jpO3lRcIJlRgXO4nu0cKq2/bZT+/Nd+kk/BLgygY8bX4HQ51Z71W6ID6V/G58inJZVp2SQJ1Keg4X7KSz/5yYnDw6I+6+Rx2V47hOOfc2RFROtwnVwjWerjdfdTQe6WTZF+n1L6h45SXzDhfg6RqU6X1t+flXKjVNYO4einnrwT8TocJc3UR+3mp718G/n3KYV/ZEKs5lu7yNtelNbfn3lygnYEBz9HyG8Ka3GN3CDZ6mN361NV7peNCusihX8kPr+rlJdLZaVXtZX7GWn7+nyfyvKg5KitxanSUX0JuPM5IGO/55b0KfEf+Co28612MsnD0sr9rJTLpJx2CCc+7WWG8lrcJA9LDfXloP/ZXl5WXBMl/gNHqC+gMD7l5b+ywdvayv2Mk6baEZQ/5eRGWe/EWvxNzk30jqSS3KB87FLC5RDfSRv8f7RaY16mi4OXPaRrhVzF09oh1DTmJfZzaC3OkKt4XzuEip48TBPlNVHC68nuj0Ftnc7UWNQWVA+eCgZSXTuGirOY4lRtwa7B0GAou2rHiFhHRvFeoF1bJVyAulCaeP48yAo8xPnqCzlcM+RYpmuHiFRdnuYYR9fiBunP7czVjhGJttzKEY6sh2JnXA97XlvbMyp2tQW7Bl/RWztEhA7lW2drC7KDs4OZvEQz7SAZ1pLBfONMbRU741opO3n9ENv2vMu2zizocIncyi0xOIwvSWXu4cKMPtcpLBtlALczWztGRrTnao4jy621UPR5+4fUf7soy+coL6/YSufTXypoR8jwp61879U63CADpZN2iFA/WdJLRju5DoqccYk0Z5Z2q5bapdxPObf2EBkwUo5lmXaIDCnHNdxCtofr8Gt5mMGs145RZpXowxXs6ugaKLK4PpFDtLOV2s38x9HFHbZv5TAWaYfIgMYMoKvH63ChPMkzHr+crg39OI1tHF4DRRbXSTJIO1vpBsT/uMrhBR62GXIov2iHCFlvnnL6S5OaHPmU/rzJKu0gaalMT87lEOeXfhHFtUh28HKyG/AoFzq/0MM1Ww7mJ+0QoanDk5E9jC4Ky2QQL/GFdowUVOQwTuQoqnmx9IsornvkGu1kpfIgl3mx2MM1W/bjV+0QoTiMF5x8tGNZzZY3eYcvHH2fZjaHcCJHUcujJV9ocYnsyg/ayUrhdq73aNGH6Xs5wPtzXZW4m0u8uPShtH6Xd3mHTxx6F3x9DqMH3ant3VIvtLhGykHauUrh39zh3eIPzyQ5kL+0Q5TBnrxMy0Ssv5UyipGM4lvF+Vd52tOD7rRz7eqslBVaXGfJC9q50taXF2O9ty7Zx3K4py80yeIq/kuFhK29P+UzRjKKaWyM7M+sQWc605UOZX7bt7ZCimutbOvdvvtARiRuw9/aC3KWdoRSaMRL7J/gdbdGpjCJiUxkaoZ+EKtDG1rTmg60jM3VjYUU15tynHaqNO3GuBj8fB6Gm+Q27Qhp2oVvqGnrDoANMp1ZzGI2s5jNz2U4lKxCE5rQmCa0pHUsf+4opLh6y+vaqdJSk69oHsNVUxoiR/Oudoi0VOQPatjaK8Q6+Zk/WMxifmMRi1nMRtaxGjbfQVye6kBVKlCDOtSjDnWoQ30aUz/2S3Sr4lou27JGO1U6A+B1jo39akrdCtnHs4fevMyptv5MmrZ6rM0bXtUW3Gi1VUD14E3PHjX4hnYA46GtisuvG33252btCM7ZNXhYO0JaRrAy/s/nMSHboriWy0jtRGmoxUveXoeSSWcEJ2lHSMOahD653ZTFFsU1wqs7FB+nkdVWoZ5gJ+0IabCDRZOuLYrLp33fqZxstVWEWsEL+LNwRrDeDhZNWgoU1yYZpp0nZXV5QDuC0w4K+mlHSNkKxmpHMJ4pUFyfs1g7T8oeoZ4/UwoV97C9doSUDdcOYDxToLiGaqdJ2eGcZLVVgprBE9oRUmbFZdJT4ALUVjJNO09KKvG9+pt0/XC4+FIJP7GTrVGTsnwzrj/ke+00KbrSaitF95OtHSFFI7QDGK/kK65P8eOnne24TjuCN3YNLtKOkCJfZobGDfmKy5dLT2/35KnYbvg/6mhHSMln5Pix3zRO8K64mnOadgSvbBNcpR0hJUv5TjuC8cjm4vpVftTOkpL/Ut7mW2m5hAbaEVLymXYA45HNxfWpdpKUtOJ47QjeqRpcqx0hJVZcJnWbi2u0dpKU3Gw3VZfCBV7MuT5D7CyXSdHm4hqvnSQFTThaO4KXKgUXa0dIwe9evhLP6MgrrlXiw1Mzr4zNo/6jdgFVtSOkwO5YNKnKK66JbNJOUqLanKEdwVt1gjO1I6TgG+0Axht5xTVBO0cKzvb+XXCaLvHgMTdWXCZVecX1tXaOEgX485gWFzUP9tWOUKIprLPT8yYl3hTXAfYKsjI6RztAidbjx03+Rl8WwF8ySztHiWy+VVbHsY12hBL5cMrCuCALYJrzt1dX5xjtCN6rHPTWjlAiO8tlUpMFePAC0SOpbAeKZXaidoASfasdwHgiC8D953D59Lotdx1AQ+0IJZihHcB4Igvc31xqcah2hFjICo7VjlCC5Sx0/ayFcYIXh4o9qGgHiqE4WjtAiVzfFo0bsmCN/KSdogSHaweIjf2oph2hBDO1AxgvZMFMcrRTlBDxMO0IsVEhOEA7QglcP21h3JAFrl/D1Y76dqAYmh7aAUpgxWVSkQU/a2cowcHaAWLlEO0AJfDjObxGWxbM185Qgq7aAWKlebCtdoRiLbCXZpgUOD/jCuikHSFm3F6e6/ldO4LxgPPFtRu17QxXqLpoByiB29ujcUMWLNDOUKx9tAPEjtszLisuk4qsDfKbdoZi7aEdIHZaO/5IQSsuU7Ks3xx/aHNr7QCxUz1ooh2hWFZcpmRZS7QTlKCNdoAYcntn8Kt2AOOBrKXaCYrVkLpuH9d4qZV2gGK5vUUaNzheXDtrB4ilptoBivWndgDjgSy3N5PG2gFiye1zXG7vSo0bHJ9xuf0V85XbS9XtXalxQ9Yy7QTFaqQdIJZ2oLx2hGL8ZTf9mBI5PuNy/VHDfiof1NOOUIxNLNeOYJyXtUo7QbHqaAeIKbeX6zLtAMZ5Weu1ExSrrnaAmHJ7ua7TDmCcZ8WVSG7PuNzeJo0LsjZoJyhGQA3tCDFVSztAsay4TEmcnnFlE9h18xlRUTtAsVzeJo0bnC6uCtoBYsvtJevyNmnc4PShotvzAp+5vWStuExJnC6ubO0AsWXFZfyWVU47QTHcflKYz9xesi5vk8YNWS6f7bA9b6a4vWRd3iaNG6y4EsntJevyNmnckOXyeSS7gjpTrLiM35yeceWwxp4TkBGrtQMUy+Vt0rjB6eIC15+I76vF2gGK5fY2aVzg9KGi618wf7m9Q7DiMiXJqqKdoFhuf8H85fZTRqtqBzDOy9pGO0GxFmkHiCm3l6vb26RxQVZt7QTFmq8dIJZWisvPva1KJbu13pTA8RnXPO0AsTRPO0Cx3N4ijRscn3HN1Q4QS/O0AxTLisuUzPEZlxVXJszTDlAst7dI4wbHZ1yzWWeXoIZuunaAYrm9RRo3OF5cGx3/kvnpO+0AxXL7efjGDVnb4fZPOFO0A8TQNO0AxdpJO4DxQFZFp18OClO1A8TOAnH7st4dtQMYD2S5vqF8ox0gdiZoByjBDtoBjAecL64vWW+n50M1VjtACRppBzAecL641jBZO0LMjNMOUAKbcZmSOV9c7n/R/LJOJmpHKFZdqrj9a5FxggfFNVo7QKx8yVrtCMWy3xRNKrKgqXaGEnxiZ7lC9IF2gBK00A5gvJAFuzp+JdcKPteOECPDtQOUYFftAMYLWVAj2E47RQlc/7L54zf5VjtCCXbTDmC8kAWwu3aKErynHSA2huP6UbfNuEwqssD9vdx0vnP9++aJwdoBSlCOZtoRjBe8KC4YpB0gFv6UT7UjlKCJPf3UpMST4nJ9puCHNxx/EawPW6JxQxZAS+0UJfqBb+xgscxe0w5QorbaAYwnsgDqBu7fH/acdgDvzZVR2hFK1EE7gPFEVu5/tNfOUaKXWWFzrjJ5lhztCCXaWzuA8YQ3xbWSIdoRvLZRXtSOUKJG1LdT8yYl3hQXPKEdwGvv8qt2hBK10w5gvJFXXHv//V8c9g2j7WCx1O7VDpACO8NlUpXXV9UDH25uvU87gLc+ly+0I6TAh3m/ccPmiZYPG837zLA5V6n4MN+qQEftCMYbm4trP+0kKcjhLu0IXpom72hHSEEHe4SgSdnm4jpQO0lKXrY5Vyn8x4MLIXzZAo0bNhdX06CxdpYUbOJW7QjemSpvaUdIyQHaAYxH8v2Y6McebxBTbc6Vlhu9mG9VpJN2BOMR74orh8u1I3hlpLyrHSElHalsZ7hMyrwrLviEoTbnStEm8aXmfdn6jBvyFdcOQXPtNCm60l6fkaJnvXkr5RHaAYxXClww30M7TYp+4EHtCF5YIjdpR0jRdna7j0lLgeI6UjtNym5mls25SnQVi7QjpKgngZ3hMmkoUFz7so12nhSt4RzEqqtYI+Ul7Qgp66UdwHimQHFlB92086RsFC9oR3Daaunn/Bt9/laZg7QjGM9s8VAIn/Z8VzDPl2+mgquYox0hZQfbzT4mTVsUVw/KaydK2V/0YZNVV6Hekye1I6ThaO0AxjtbFNc2wb7aidIwlju1IzhpoZztzWEiVOBY7QjGO1s9P/BE7URpuZVx/nxDI7JJ+nrzayJAd7axA0WTpq2KqzcVtDOlYQPHscCqq4Ab+Vg7QlpO0Q5gPLRVcdX26JdFgN/pbdfR5/Ou3K0dIS1V6akdwXiokHPxp/Cedqq0fMGVPKIdwhHTpY9HZ7cAjqSqHSimYIUsAlaygY2sAISALGoClahMdeqQlajlWEhxHUk1VmrnSsujNJNLE7XaCve7HMFy7RBpOlo7gIPWyRxmMYufWcRifmMxi1hX4r9VR+pQlzrUpwmNaUwTGsb4foSgsP1zH3lZO1eayvEmR8Z2JaVmtRzIV9oh0rYtL9A94WsOYKV8y0SmMptZ/BLSrLkijWlNa1rThqYxK7FCi2uE+HK79T+qMpL2sVo16dkkx/O2dohSCbiYuxP6NK418hUTmMhEZmb4cY/VaEUHutCF7WOxpAstrhxpyk/aydJWh5G0jsVKSZ/IWbyoHaIMWvIKeyRo3a2T8YxiJF+yNvI/uxFd6cxB7Or18g4Kn5TeLjdqJyuFbRlNc69XR2ldLI9pRyijitzO5Qk4wTxd3uYjxrNGOwiN6UF3Dvb0x5EiimuhNGKDdrZS2JHRNPFyRZTFNXKPdoRQHMxLMTmQ2VqOfMnbvM0P2kG2UJF9OZLjaejZcg+KOg14nLypna1UduTjRM26RC7nIe0QoanNUxwfs7UnMpZXeIfftIMUI4v9OIHjqO/Nsi+yuD4Uvy5E/UcDPkrMua5Nci7Pa4cI2Rk8TPWYrL+50p/+3jynoxwH0pfjvfihpMjiypFm3izwLdVmGPt4sPDLap2cziDtEBmwMwPo5Pn6WylDeJExnl0ODLANp3GO87v+oOgFe69crZ2u1KowgGMdX/RltVSO4TPtEBlSnhu4kfKersF58ijP8pd2jDLpyDmc7PDcq5jiWi47ebzwA/6Pm51d7GU3Vw5nhnaIjOrAyzTzbg1OkId4jY3aMUJRj7O4lO3cXAdSzOcqwevPebJW1ENk5DNS6mlHiOBTXZ73aP1tlJdlL+0QoX8qy3ky08G1EBR3DP6LNPXyooh/7MPr7ODmHqPURO7j3zHZp5fseJ6itvNrcKO8yu3OXeoQliyO4mbauLUWiu+1PtrFWuZPffnUwf1F6T/L5XjtCBF/tpePnV6DG+RFaaYdIuOfLDlRvndoPZTwP38rgXbCMn/KyfWy3qFFXpbPF9JUO4LCJ0uudPSgP0cGyM7aISL7lJM+MsuR9VDiP3CYdsJQPu3lB0cWeOk/G+VWKa8dQu2zh3zn3BocI+21I0T+yZZLZIkDayKFlaOeMZRPNXlENjmwwEv7mSadtCMofyrJw5LjzBqcI721I6h96sgjskF5TaTwj8RjzoUgnWWaMxt+Op+18h+poB3CiU93WejAGvxLrpGK2iGUPy3lQ9U1EZR8Ze+X0lH7F4TQVOBarvPs9aMj5SKma4dwRj2e4SjV9feuXMQv2ovBCcfyiN5VXqm02+Hq/R7mZ3t5yaFDjuI/88X/33XD//SRFUrrb6GtjwKfmvKg0gmYFGZcMEHa4989V8XpzD10dnze9afczYMpPGs8iZrzcuTPuxV5hmtZpj105xzA0xp3OKTWb0epd3v4n8PlG2fnXX/JLVJTO4TTn2y5XTZGuP7myn7qY3b1U1n+F/m8K6UZF3wne7Ip8lLNtICj+DcdHJt5LZUneIAl2jE8sC/9aRzJ2ntFLvL4vt0oHMhL7BjlNynVhjtPvdcz9ekigyPddxf3mSvX2kwrjU8NeSrja+4vO6+V0qemvBzhtyjFGRf8Ic28e2df6ppzLn2ppzj32iQf8gzvxnBem2kn8zi1MrbmxslpzNMeojfO5GGqRfItSrm44G65Tm2BRKECR3MWh1Au8vqaI/15np+1F4C3dqI/+2dgrYncwX9sV5KWFrzJ7hF8g9IorvXSklmKiyQatTmC3vSI6CF2P8ubDOFz4vWbbfQCLuEeKoS6zlbImbyhPTAPVeM5Tsj4tyeN4oIhcoLiAolSA3rQnUMz9kCVTfIlwxnBBKus0LTj5RDfFThdjmGm9pA8FXAld2Z4159WcYkcENuHBRemHPuwH13oHFqBbZRJjGMsI1mqPbgYqsJ9nBfKq+bfkDNZoT0crx3EwIyeM06ruOB72Yv1yoskegG705bWtKF1qW5xWC3TmMJUJvM1q7QHE3O9eLaML9kSuYk7bCZcZjvzPi0yVl1pFhfcJLcpLxBdNWhCY5rQiDp5n2pUJKBWAGtkLfAnK1nCIpawkLnMZR6/2tcgQg14nsNL/YVZL2fzsvYQYqI2b7Nvhqor7eJaJ3vYsb9xWsA53F+qV8uvkN58oB0/RirwPKdmpLqy0v0XKgaPaC8NY4olPE0HJqU9zf1ZOltthWo9fbgzI4cbaRcXHBqcqr08jCnB93TkHslJ40szRTrxnXbs2BGu50qR0Msr7UNFgN+lFYu1l4gxJTqQ/im+5elr6caf2nFj61yeICvUQ8ZSzLigQfCM9pIwJgUjacUrKeybv5HuVlsZ9DSnsSHUWVepZlwAp8qr2kvDmJT05uli72YcI0fYVVsZ14vBVApt1lXq4vpTWrNAe1kYk5ImvFzkgyM/kSNZrR0wEY7kdbJDqq5SHSoCbBM8h2MPsjKmCHPZj/+TjYXspT+SnlZbEXmXvmwK6YCx1DMugAvlCe1lYUzK2vMyzQvsbb+Sg1mpHStRTuf5UE7Tl6m4Vkk7uxjVeKQaD3L25q/Nd7K/3TMauUt5KITiKvWhIkDVYDCVtZeDMSlbST+OkyUCMFe6WW0peJj/C+FwsUwzLoBn5FztJWFMWhrwPHuznx0tqHmcC8o46ypzccFp8or2cjAmLQHbslA7RIJlM5TDylRdIRTXKmlvb1o2xqShOmPYowzVFUJxwXeyj/2kbIxJw/aMT/F2rMKU6eT831oFT2kvBWOMVxZwLGtLPW8KpbjgtOAa7eVgjPHK15T+h71QDhUBNsmRDNNeEkZNJXbkR+0QxjvP0K9Uh4shzbigXDCQltpLwSgJeJbJXGo3gZk0XczXpZo7hTbjApgrHew5XYl0GzcEAB/ImXaZgUnLjkwoxfuAQptxATQJXiVbezmYyPXNqy3oFkzicO04xis/cybpPyE11OKCQ4MX7XAhYfbl6Xx/1SB4P3iJqtqhjEfe5/G0/51QDxVz3SE3aC8JE5mmjC9koj9DTmWidjTjjUp8Reu0Zjwhz7gArg8u1F4OJiIN+KDQ8xO7Bl9wTSY2LhNLa+nDurTmUBnZth7heO0lYSJQk+HsUsR+skJwdzCGptoRjScmk95xWgYOFQHWymGM0V4WJqOq8FGRj0P+259yAYO0gxovZDGarikfLmaouGC5HMpX2svCZEw279Ajpc1siJxnb9AxKWjBtym/TiNjpyFqBB+yt/aSMBmSxYAUawt6B5PYTzuw8cBM7kz5n83YjAtgsRzEVO2lYUIX8HSaN2pskju5hY3awY3jKjCBViltWRktLlgkBzJNe2mYUAU8yoWluFjvazmNH7TDG8d14HPKpbB1ZfgX63rBRzTXXhYmROV4oVS1Be2DCfTTjm8c9xXPpPTPZXjGBfC7HMYU7eVhQlGO5+lbplsj3pJz7X5WU4za/ECdErexCK4RbBCMoqP20jAhKMeLZawtOCb4jiO0B2IctpTbUvinIphxAayQXozWXR6mjCrwGseGciOqyMNcx1rtARlHZTOFXUvY0iIqLlgjvXlfe4mYUqvBmxwc4v3z38kp9otzmipRlzrUIhsIEOAvlvEHf2kHC10PhrlSXLBB+thV1J7almHsFfJjP9bK9TxIdNufjyqwO21ozS40pjG1ilgD62U+85jLNKYymSXaoUMxnO7Fbm8RFhfkyLXcq7xATPqaMYKmGXla0UdyBr9qD89BVTmQ/ejM3lRMe7n/KJ8zlo/4SXsQZdKOrwmKGXukxQXwhFzCJtVFYtLTnvdL8YTKVC2Rc3lTe4gOqctJHMW+pSisLU2X4bzOeG/ntG9xtEvFBcPkRFYqLhCTjsMZRLUMPxvyebnMtggq0pO+9CA71KU9XwbxPDO0B1cKbZhEVpHLQqG4YJL0tAMEL1zFXSldx1xWs+Q0vtQerKLduZiT2CZDS1pkDI/zundHOgM50a3igp/laHtCpuMq8TR9InsO90b5L3ck8m7GttzA0cXMLcLyg9zNADZoDzcNu/JdkbtNpeKCdXIhz6stElOShrzFPhG/PuBLOY1Z2gOPVBeupWexJ6HDNV/u41lWaw87ZYM4wbXiAnhUrvBqD5AcHXiL7RTeerJCLuEl7cFHpAWPcKjCMl4o1/CKJ6fsO/Cli8UFY6U3v6kmMFs7m0dTfqBb+IbI+SzVXgQZVoXruSqEXw5La5RcxPfaCyElo9mv0KWk/D6DrsEEOulGMAVUYwDPBnq1Bb2DyRykvRgyqhfTuCHQqy04IPiWu714iVxR130qz7gANshN3EOOdgwDtGFQiXeJRSFH7udG1mnHyIBaPMPxDixhgPlymvNvhshiWqFbpANvkMoO7go+oKF2DMM5jHeitiAruCoYz+7aMULXgUnO1BbsFHzK9S5UQDFyeKDQv+/AjCvXIjnTbsJWVIMnOMWZr1SuNXINj3lyGrlkAZdxNxUcW8bwgfRhkXaIYlTlV2pstdScqdt6wXs8SEXtGAl1EFOcqy2oHDwSvM+22jFCUYu3eCBwr7agW/Ct0y8zWcVrhfxdZ2ZcuabKWXyjHSJhqnAXF0d4LVG6Fkk/3tUOUUbbMyLFl0DoWC99HX5ySzu+cXfGlat18AV32bwrQh2ZyCWBu7UF9YJ3gpeoph2jDHZmtNO1BRWC17hSO0SRJjBpq/mVY8UF5YNrg4l00I6RCBW5i7G0cPorlatv8I23b+lsz3h2dn4ZB8G9wW24GnPrF2g4dqj4t01yH/+xh/tm1ME8TnNXt9RCbJD/8D/vbhQ+lDcz/nSN8Dwr5zu5hGvy2xaXRDs348pVLrjGXqqQQQ14iY+8qi3IDu4IxrKzdoy0dOQtj2oL+gWPaUco1F8M3+LvOFpcADsHQ4N3aawdI3YC+jCNvk6f1ypKx2Ai52qHSFlL3qeqZ0v5vOA/2hEKteVPB44eKv5jtdzBvbG8hlrHXjxOR8++TFt6VS704AURjRnL9l4u6QvlCe0IW6nK7wV2Ag7PuHJVCW4LptBDO0Ys7MCLfON9bcEpwWSnrzwCqMcIT2sLHuF47QhbWbXF5enOFxdA82BY8DHttGN4rTq3MZPTg8w/sC4KjYJPuYNs7RhFyuZtL36tLVy54GXaa4fYSsGDRecPFf8hMpAbmaMdw0Pl6cfNNPD2i1SUCXIqM7VDFOp/XO350p4jbR07HK/MonwHi17MuHIFwcnBdB6krnYQr2RxAlN4IohfbUG7YCLna4coxBFcpR2hzJoGz2lH2MIaRub7K4+KC6BCcFkwm9utvFKSW1qDgt1iWFq5qgRPBH21Q2xhB150+Aaq1B0XXKQdYQv5L4nw6FAxv1XyLP+zNwUVI4vDuTX0t0+7aHeZrh0hn/KMpGtMlvo66ezUK22aMGfzkvW0uABWyzNWXoXKpjfX0zImX5/izZdG2hEKuIp7YrTcp0pbp968NGPzTx6eHSrmVyW4LJjD07TSDuKUWlzDbF4JklFb8IF2gAJ2wM3LN0urdXCZdoQC/jlY9Li4ACoG5wRT+Iievg8kFLvwCD9zd7BjQkoL4EPtAAU86NUNPqn4D9trR8jnn92Ux4eKBf0oD/MSK7RjKMniQC6hVwSvFXWLyLb8oR1is+4Mj+HyHywnakfYrAZL814RG5viAvhLXuN5vtaOEbHtOYOzaBrDr0zJZsqu2hE2q8RUdonlWjhMPtKOsNkk9gzA+0PFgmoG5wdfBVO4LCGXS5TnKN7jJ24LkllbMFY7QD4XxLS24F6HntP19xqPVXHlah08GPzCYA53+JaQsuvAvczn7aBnUM6drSpy7hRXRYefIFpWbYIjtSNsNi7vP2N1qLilP+U9hvAh67WDhGp3enMqzRJcV//YTWZoR8hzHk/GeI18JftoR8izPb/E7xxX4ZbI2wzmU6euRymNgLYcywmxPSBJ30qp6ciLhMszM+ZnGd05z/UTOwWJKK5cK2UkQxnGL9pBSqEqB9KLI7x9TEqmjBFXHm7Th/4xXzej5QDtCHne5qgAymvHiEq1oBe9EJnEcIbxpZNP1t5SFq3pTg+6UD7mX4vSced2lGu0A2Tc/kEn+UI7BABTOYoEFVeuIGhLW27gLxnHWMbwtZPPVs1mb/ZlX7qwjRVWMSZpB8jT3vGXj4XjfNworilAgg4VC7dWvuYzPmcCv2tHAXZgL/ZmPzpQJQFfhLLbR77SjgDAI1ycgPW1WrZnmXYIoAUzknSOqyS/yiRyP3Mj/XOzaMZe7Elb9qReAjb/8IjUYrl2CKACC6ibiDV3vjylHQEox3KqBFZcW3lDonzidi/eTcRGH74FsoN2BACO4u2ErMGRcpB2BAC+Zu8ghhegllUF7QAmJa48hauPdoDI7Me22hEA+IFYXjlvkmG2dgAAqtJTO0JkygVHaUcAYC5WXMZb87QDAHAQFRNyoAjQTTsAYMVlvDZPOwAA3bUDROoQJ06kWHEZj/2kHQCAg7UDRKp64ML7FudgxWW8NV87AFCX5toRItZVOwDwCxvEist4ScSFJ592isWLyNLRRTsAsJGFNuMyfvqTDdoRgA7aASLnwqEiLLLiMn5y4RYt2EM7QOS2DeprRwAWW3EZP7lwoAhttAMkdMxWXMZTy7QDAFXYSTuCAhdeT2LFZTzlwu3VjRJ3ah6gsXYArLiMt1x4g2Zj7QAqmmgHwIrLeMuF4tpRO0BiR73Kisv4yYXiSsbbO10c9TorLuMnF14558JXOJmjtuIynnLhZXPbaAdQUT3Qf9HyWisu4ycXiquidgAl+k+IsBmX8ZQLxaX/BdahX9hWXMZTLrzBWv+QSYd+YW+04jJ+0v/yuDHr06B/e3sFKy7jJxeKy4VfNpM57opWXMZP+udZXPgCJ3XcNuMynnJhxrVMO4CKNbJOO4LNuIyvXCiuJdoBVCzSDoAVl/GWC4eKi7UDqFiqHQA7VDTeqqkdAPhVO4CKX7QDALWsuIyf6mgHIPf9fskzRzsAUMeKy/jJhVt9k1lcLozaist4yoUZ13J+E+0M0ZupHQCoa8Vl/OTCjAumaAdI6JhtxmU8VduJTdeFL3G0lsoC7QjYjMt4q1xQWzsCMFE7QEJHXM+Ky/iqkXYAYJx2gMiN1Q4AZLOdFZfxlQtvm5nPzwk7Pe9CcTWiXGDFZTzVWDsAAKO0A0RqrXyhHYHcNW/FZTzVWDsAACO0A0RqNKu1I5A717biMp5qrB0AgA/JSdDBohs13RgrLuOtptoBAFjsxFmfaIi8ox0BsBmX8VozJ54QAYO1A0TmKydu94GWWHEZb5UPdtWOAMAbbErIwaIbFZ3NrlhxGY+10Q4AwG98oB0hEhvlNe0IAOxGhcCKy3istXaAPM9oB4jEuyzUjgD8vdatuIy33JhxwVB+TcDB4tPaAfJYcRnPuTLj2sgD2hEybrJ8qB0hT+7uyorLeGu7YAftCHmeYHHM51y34cYAA9oBVlzGa520A+RZxSPaETJqurypHSFPM+oHYMVlvNZFO8BmD/GXG1OSjLiDHO0Ief5e41ZcxmPuFNdfPKkdIWPmyEDtCJtZcZkY2JOq2hE2u4clMZ1zXc9G7Qibdc77Tysu47HyQQftCJst4d/aETLiYxmkHWGzuvx9t4QVl/HaAdoB8nmO8bGbc62Ti7Qj5LMfQZD736y4jNe6awfIJ4dz2Riz6vofP2hHyKfH5v9mxWW8tjf1tSPkM5UntCOE6ie5WztCAYdt/m9WXMZrWcFhZf8/CdGNzI7NnCtHzmKVdoh8WrFT8Pd/t+IynnPpYBGWcxxrY1Jdt/KpdoQCeuT771ZcxnPdHNuIJ3ONdoRQjJLbtCNswYrLxEjdoKN2hC08whvez7l+k5PZpB2igFoFLje24jLeO0E7wFb6Mcfr6sqRvvymHWILx1Ah+OevrLiM906gnHaELSyjF0s9rq4r+Eg7wlZOLPBXVlzGew0Dd+5Z/Nv39GCVp9V1izykHWErdTmowF9bcZkYcO9gEb7iRC8vR31abtaOUIhjyQ7y/7UVl4mBEyivHaEQ73MG4ll1vevULT7/2HLXZMVlYqBecIh2hEK9wmVeVddwOdGhJ0H8Y/ut7km14jKx0E87QBEe4TQ2eFJdL8tRrNUOUagzKRcU/DtWXCYWjqKhdoQivEoPVnhQXQ/J6WzQDlGogDO2+ntWXCYWygd9tCMU6RMOZpHT1SVyrfzLmcczb+lQdg62/HtWXCYm+hGU/f8kQ75mX753trpWyMn8TztEMQo7DWDFZWKiWXCAdoRizKQDLzpZXZNlb9x5xunW6nFUIX/XisvExiXaAYq1ijPpK65dlNpfOjv1qMCtnV/gVp+/WXGZ2DiKZtoRSjCA9nznTHUtl5PkdFZrxyhWJQq/rsyKy8RGVvAv7Qglmk5bLpOVDpTXe9La6UPEXH1pUOipSysuEyNnUFc7Qok28DC78bpqdc2SHnIk87UXRYkC/lXE/2LFZWKkSnCBdoSU/EJveslclfJaIzdLa0ZoL4KU9GK3In4qtuIysXIRlbUjpGgou3Ox/BRpea2WB6UZtzh6ffzWriryf7HiMrHSwJM5F8BaHqMZfWVGJOW1Uh6SXbicBdrDTtnB7FvkpXmBA2cJHbJRJvJipK+Y2o5+7Ecnqrh79aRn/pCdWakdIi3lOIHLaZ/BLeBneYZH+VN7oGkaR2crruJtkM8ZzVi+UNrks9mbfTmE/ahoBVZm/5a7tCOUwp704yTqhLz+V8ib9GeUs7fzFK0Hw4pZFokvrl9kOCP4iBXaQQCoyiH0oEe+98eZ9C2VpvylHaJUynMwJ3BEEZcApGeNjORV3nL8Oq2iBHzF3lZchZkmQ3ibydoxCrUnvTmBXay+SulmuUU7QhkEtKUb+9ORGqXYAjbKZMbyAaNYoz2QMjiat4odeyKLa7oMZgjTtGOUqC29OYnGVl9pWy7N+V07RJmVoxVtaU1rdmEHyhe7HSySuXzHVCbztWdn+ApTnm9pacX1jz/lVV5ggnaMNAQcyFkcS2Wrr7Q8J64+WrB0yrMjDalDHapTJe/vbWQFS1nMYubFoKzyu5hHStjeE1NcOfIpz/OWN1ewFFSLU+jHXlZeKcuRvZmkHcKUSm1+pLYVF6yQ13iI77VjlFk7LuWUEg4ZzN8+l64kYeuOn0e5qMRtPPbF9aM8yoss144Rmp24iHPYxsorBSfIEO0IJm0t+TaFnXOsi2uS3MbbHl7BUpLqXMCV1LfyKsE8acUq7RAmLQEfcXAKW3Zsb/mZJCdIO96MYW3BCv7HTpwnv8R5rxOCxoHPF0Uk0+kp1VZMZ1xfyo18rB0iAhU5h5ts5lWMTdKJr7VDmJTV5/sU7x2I3YxrppwgnRJRW7COR2nKdbI8jnufUJQLniVbO4RJ2YMp3/IUq+JaIOdKK4Yk6rekVdxNMx4VX146GrU2wdXaEUyKjuDklI8eYnOouE7u5/YEn4rdnUc4yA4aC7FW9mKGdghTohpMTeMe3ZjMuD6Rtlyf4NqC7zmYXhE/ls4PlYJXqKAdwpTokbQeLRCD4ponR8shMbi8tOyG0pK77KBxK22DW7UjmBKcRN+0jhc8P1QUeYarHHkkjSva8GxGH0rnoxw5lE+1Q5gi7cDkEm/yKcjr4pol5zBKO4SDynMhd9ozVQtYIG1Yqh3CFCqLjzkwza3V20PFTXKHtLLaKtRGHqYtX/m8Twrd9sFT2hFMEa5Pu7a8nXHNlz58ph3CceW5gZsoZ/Ouza6QB7QjmK0czAel2Eq9LK4hcp53D/7X0ZFXaGrVlWejHMJo7RCmgJ34hnql2EK9O1RcLqfKCVZbKRpPO+V3JrukfDCI7bVDmHwq8Uapasu74popnXlVO4RXltGb8+wSiTwNgtepqB3CbPZosS/EKI5XxfWatPPgSfHueZqDWWjVBUDH4GHtCCbP+Zxd6tMY3hTXerlUTkn0tfFlMYa2fGbVBcC5wVVl/z8xZdadR8rwb3tycn6pHM9I7RCeK8/DXGAn6gGR0+yEg7KWjKNmGbZGL4prlvSy22RDcSkPkGXlxVo5mM+1QyTYdoxnxzJthx4U11g5hsXaIWKjBwNL9ZrRuFksnflRO0RCVecz9izjNuj8Oa4X5SCrrRAN5yD+cH9vlXF1g2E01A6RSJV4s8y15XxxPSRns0E7RMxMoBOzrbrYJRhJA+0QiZPNYA4JYcbvcHGJXCf/iuXLLrTNYV8mW3XRIviAbbRDJEoWL9ErlBMVzp7j2ijn8KJ2iBirzVA62bkuxkk3u8gmIgHPclZI25yjM66NcorVVkYtpRtjXd1rRahL8A5VtEMkQsDDodWWozOuTdKH17RDJEBV3ivFA0XiZ6wcEaN3nbspiyc5J8RtzcHistqKThWGWnUBE6S7/XadQeV4jtND3c6cK66NcjKva4dIkGoMY1+rLqbIYfyuHSKmKjKIo0LexhwrLpEzeUk7RMLUZFQI19X4b6Ycys/aIWKoKm9xaOjbl2Mn56+22orcXxzGTLf2XypaBF/SVjtE7GzLqAzUlmPFdbvcpx0hkRZxKPOtumgYjKandohYacn4Uj9xq3gOFdfTcqN2hMT6mcNZZtVFteAtztMOERsHM5ZGGToJ4UxxfSAXaUdItGn0xp6TCuWDJ4O73flaeOxMhlMrY+dOHTk5P106s0w7ROKdxXN2kh6A4XKavYWxDMpzG9dmdFtyorgWSydmaYcwwD1cZdUFwHw5jm+0Q3iqHoMyfnWgA8W1Tg7kC+0QBoAs3gz9ihtfrZZzeUU7hIe6MpiGGd+GHDiYv8Rqyxk59OUH/X2ZE6oELwcP2zuB0hJwGZ9GUFsOzLgGSF/lBKagFnxlz0jdbJqcymTtEJ6ox/P0jGjLUZ5xfSv247NrZnKudgSHtAzGcynW4yU7jMmR1ZZycS2Ro1mjGcAUahAPaU/EHVIpeCh4j/raMZxWmUcYEckh4t8UDxVFjuZdtT/dFKcCX9DWphn5/CGXMkg7hKM68wy7R7y1KM64nrDactZ6TmSFzbryqR8MDN5nJ+0YzqnCXXwWeW0pzri+l/asVvqzTSrO4Wmbc21htdzKvWzSjuGMI3icnVS2EqXiWiv7MEXlTzape53jrLq2Mk4ust8ZgR25j95q24fSoeJNVlseOI/f7XBxK12CCTxJPe0Yqqrwf8xQrC2lGdeX0sWm2144kndszlWolXIvd7FOO4aKnjxCY+XtQqG41klbvtcdtUnZEI636irCTLmWd0nWpLQj99DVgS1C4VDxVqstj1zAomR9M9PQIng7+Jbe2jEi05rBfO5EbSnMuL6V9mzUHrVJQx/6O7Gpumuc/B+faofIsNbcwtEEzmwJEReXSBe7pdozAaPYz5kN1lWj5C4+jOlhYzuu4XiynNoGIi6uF+Qs7RGbtLVkEtlObbZumiqP0p+12jFC1YVr6eXguo+0uJZJC/7QHrEphQf4l4Mbr4sWyMM8HYun+VbkVK6gpaPrPdLiukQe1R6vKZXqzGA7Rzdh96yV93iaTzw+cGzBmZxJfYfXeITFNU32tNPy3rLn0adrmjzLAJZox0hTFXrTz5FfDosTYXH1kqHaow1NdZrSmMY0pC51qUo21YD1rGIDS1jCIn5iLnNYqB00NOX4llbOb86uWSvvMYhhXjy8qRwHcSLHU9OLtRxZcX0m+2uPtcyq05HO7EkbmqT4w/CfMpkpjGdsDF7u3pP3vNik3bNS3mUwI5y9zj6L/TiR46jn0fqNqLhEOvGl9lhLrRwd6UE39qJcqVftfPmQEXzEcu3BlMEo9vdo03bNXzKc4XzA79pB8qnBwfSgZ6SPAAxHRMU1RE7QHmkp7UVfTqZBSCt2vXzEYN7hL+1hlco+fOHQJYh+ypFJDGcE45Xv1m1Dd3rQxdvLXCIprhzZg++0R5q2hvTm9Iw8B3SdvOvpr05DOcLTDd01q2QS4xjLOP6M8E8tzx50oSv7O/2LYSoiKS7/5ltt+De9y3BgmIpv5Q7eIEd7qGnZh/Geb/Cu2SRTGM9kpvAdKzL0Z1SgJa1owz60p1JM1l8ExSWyp1dP39qHG+gZ0SHRdLmT17y6SOQDDovJpu8akblM4TtmMZd5LCjjoeS2NKYJTWhNa1pQPnbrLILiekeO1h5lyrpwCwdHvJLnyJ284M3zyboyJnZfAhdtkPnM5VeWsITFLGIJf7ISWMkGNrEcqEoFAmoBldmGOtShLvWoQwMa04TKMV9LERRXe/lGe5Qpqc//6Kt08nmiXMBX2gsgRSM5IOZfCuO+jD+P61MvaiugD9M4PdD6zaxtMJ6XqKu9GFJyv3YAYzJfXA9rjzAFbfmS/kFd1XlEEPQNvud07UWRgvf50b+fQ03MZLi4Zsl72iMs0bl8QXsnDn7qBS8Gb7GNdowS5HixMzLxluHiesTxn/trMJinggpO1Fauo4NJ7KMdogTPs9TmXEZVRotrubygPb5i7cNk1VcsFa5RMJoLtUMUazUvakcwCZfR4notY5fUhaEfY9RfslS4isFjwatU1I5RjGe0A5iEy2hxPas9umJcy9NO36d1cjCCGtohijSDcXawaBRlsLimOnshRMC93KV26UOqDgg+pb52iCI9px3AJFoGi8vV+VYFXuFKx0srV7tgPLtohyjCYJbbnMuoyVhxrZNXtMdWqGze4mQvagugSfAZzbVDFGoVA7UjmATLWHGNcPJp2wHPcLg3tQXQMPiYHbVDFOo17QAmwTJWXIO0R1ao+zjdq9oC2DEY5uRFqZ/xqx0sGiUZKq7VTl4xfz2Xe1dbAK2C96miHWIrObyhHcEkVoaKaxgrtUe2lTO5TTtCqXUKXs78baVpG6wdwCRWhr4N7h0otuUJr5+Xfkxwg3aErXzOL3awaFRkpLjWyQjtcW2hGq9S0ePaAriZg7UjbCGH+Lwp0/glI8U12rkDxSdp4XltQVbwCttqh9jC+9oBTEJlpLhc25wv4FTvawugQfAK5bRDFPAJq+1g0SjISHEN0x5VAS1j9MzOg4IrtSMUsIZR2hFMImWguGbKLO1R5RPwSGxeyQRwM021IxTg1k7KJEUGiutD7TEV0IcDY1RbUDl4SDtCAR9pBzCJlIHiGqU9pnxqcJd2hND1DI7UjpDPD3b9vFEQenGJjNUeUz530jBW861cj1BVO0I+Y7QDmAQKvbi+5w/tMW22F+dpR8iInYLrtCPkM1o7gEmg0IvLpc34/ygXw/kWwOUOvYPRpTVukiL04nLnwKElLp0LClfV4BLtCJtNZ4md5TIRC724vtYe0Wb/Jium8y2Ay6ipHSGPMEE7gkmckIvrL5mjPaI8TTlRO0JG1Qwu0I6wmavvFjDxFXJxTcCVo4brKB/j+RbAlc78tmgzLhO1kItrovZ48tTkNO0IGVc3OEk7Qh4rLhO10GdcbuhN5ZjPtwD6aAfI8xOLXZlom4QIubi+0x5Pnr7aASKxH020I+SZph3AJEyoxbXJkdurG9NVO0IkguBU7Qh5ZmoHMAkTanHNZa32eAA43euHNKejL24M1IrLRCvU4nJl83VlHpJ5zYIO2hEAmK4dwCRMqMXlxua7G83cmIZEwo27A1zZZZmkCLW43DjD1U07QKR6aAcA4Cc22O+KJkKhFtfP2qMBoLt2gEjt6cQLNDbxq3YEkyixK65ydNaOEKkg2Fc7AuDGujfJEbviakP1BJ3hAuiiHQCAX7QDmEQJsbhWyTLt0QCdtANEzorLJE+IxeXGprundoDItaa8dgRcWfsmKUIsrt+1xwLAHtoBIlcxaK4dAVikHcAkSojFtUx7LEDA7toRFLTWDgD8qR3AJEqIxbVUeyzAtlRL2Kl5gF20A2DFZaIVYnG5sOm68rSEaDXWDoAba98kR8wOFRtpB1DhQl1bcZkoxay4GmgHUOHCtfN/aQcwiRJicbnwSBt33jaYtFGv1w5gEiXE4tqgPRagjnYAFbUdeCqX2G3WJkIhFpcL+9xq2gFUZAcVtSPgxo7LJEXMZlwVtAMocaG4XNhxmaSw4ooFF8ZtxWWiE2JxbdIeCzhwrkdHyC9rKhU7xWWiE+IWb3t9Peu0A+DG4apJCiuuWLDiMskSYnG5sOGu0Q6gIkdcKC4XdlwmKWI241qsHUDFUnK0I1Ceckk9wWgUxGzGtUQ7gAoX6tqF3ZZJjpjNuP7QDqDCheJyYbdlkiPE4qqpPRZgvnYAFfO0AwC1tQOYRAmxuFy4T3CudoDEjtqFtW+SI8TicuEZBb+wPoHXQVpxmaSJ2YxrE9O1IyiYqh0AN3ZbJjliNuOCKdoBIrdJvteOgCtr3yRFzGZcSSyuWazWjoCdnDfRCnXG5cKtvl9oB0joiF14fLRJjjAvQA1c2Hi/YW3CTs+P1Q4AuPHCDpMcoU6SXNh41zFBO0LExmkHANxY9yY5Qi2uxtqjAeAj7QCR+llmaEcAyrGjdgSTKLGbccFw7QCRGqYdAIAdyLZbrE2EYjjj+oY/EnSWy43icmOXZZIjhjOuHN7QjhCZ5fKhdgQAmmoHMAkTanHtrj2aPIO1A0TmHSdewwuttAOYhAm1uLYN6muPB4AxLEjIweJA7QB5WmsHMAkT8jWjbbTHA8AmXtCOEIlf5APtCHncWO8mOWJZXPAMmxIw53reiVfCwbbUt98UTaRCLi5XDhnmM1Q7Qsatl2e0I+RxZa2b5IhpccGd2gEy7iV+0Y6Qx5V5tkmO0IursvaI8nzJJ7E+WNwk92hH2Gwf7QAmcUIurgpBO+0RbXa7doCMepUftSNs1kk7gEmc0J9E00V7RJuNZGxs51wi/9OOsFkTdrBT8yZiMS6uOM+5hvCddoTNXFrjJikyUFzu7H5H8F4s51yr5TrtCPl01Q5gEij04qodtNAeUz4XsyqG1fVfJ97r8zcrLhO9DDxt+QDtMeUzP4aXRcyQ+7Uj5FOf3bQjmATKQHF11x5TAfcwI2ZzrotZrx0hn+5kuXNuwCRGBorrYCpojyqf9VyMxKi6XpVPtCMU0EM7gEmkDBRXtcCtsx6f4NKhVdnMl0u0IxRQjkO1I5hEysgbxVzbC1/HuFjMuTbISSzVDlFAB+rYgaJRkIji2sjJLIlBdV3tyDsU/+HamjZJkZHiahm49ijfnznL+zNdb8vD2hG2cqR2AJNQGXr59Ana49rKu7hzk0xp/CBn4Vrz7soedqBoVCSmuODfvODaNz9lC6U7f2qH2MpJ2gFMYgWZ+i7v5sSLSgvK5m0O93COsFwOYJJ2iEJMY3cPl6aJgwzNuOB47ZEVYgPHe/j74no5zsna2sNqy6jJWHG5eLAIaziK6V5V1yY5mY+1QxTKzTVskiFjh4qwp0zWHl2h6jOMdp7MFdbIKbytHaJQWcymsSdL0cRPxmZc0E97bEX4gwP4wItZ1zLp7mhtwaFWW0ZRBourD1W0R1eElRzJQOera6EcyGfaIYp0jnYAk2gZLK6agYsn6HOt51Qedbq6ZkgnvtUOUaQGdumpUZXB4nL3YBEgh0voK64+ZvAt6cRP2iGKcQbZdqBoFGXw5DzA7jJde4TF52MwLR37Cq6VK3hCO0SxAmbSzLGlZpIlozMuuFh7fCX4nr15yKlZ1zzZ3/HagsOttoyyDM+4VstOLNEeY4lO5QHqOfBVFHmeK1iuHaNEn3KgA0vLJFmGZ1xVggu1R5iCV2jOQ7JJeeY1WbrSz4Pa2ttqy6jL8IwL/pBGrNUeZUra8hgdlb6Sq+S/3MdG7UWQkkGcYMVllGV4xgX1g9O0x5iiiXTlAlkQ+bxrgzwvzbjbk9pqwrHaEYzJfHHBFVH8IaHYxJPszHkyJ7LyWiuPSzPOZqH20FN2BeVtvmXUZfxQEeAUeU17nGnJ4jhuzvizD1bJs9zDAu3BpmU7ZlHZisuoi6S4ZkpLNmmPNE1Z9KAfPTM0v5guz/KSB7+3bulJzrPaMg6IpLjgDHlJe6Sl0pCTOIF9CEL7uv4qbzCQz7UHVipNmGlXzBsnRFRcc2RXNmiPtdQacQTdOYiqZfjSinzLCIbxOTnawym1FzjDass4IaLigvPkae2xllEF9qYzXdgzrQe6LJcpfMkYPmeR9gDKqAXTKGfFZZwQWXEtkBas0h5tSGrSil1oQhMaUI+6VCeLmgGskbWsYwlL+IP5zGUO3zNPO2xo3uBYqy3jiMiKC26Tm7RHa0rtID6x2jLOiLC41spuMZp/JEs5JtLGiss4I8JrQysFd2uP1pTS+VZbxikRzrgA9hd3H0ZsirINP1DXiss4JOK7cR6kvPaITdr+a7VlHBNxce0V/Et7xCZN+3C+dgRjthDxoSKsljbM1h61SVkFJjr3cGtjIn9wQ5XgGex74I8brLaMgyKfcQGcJS9oj9ukZFe+paIVl3GOSnEtlVYePYEqucozln2stoyDVJ7xVzt40Q4XPXCD1ZZxlMqMC+Bf8pD22E2xOjDWHmJjHKVWXOtkHyZrj94UqSaTaGK1ZRyl9jj4isErVNYevSnSY1ZbxmGK77FoafcuOqsPp1ptGYepHSrmOl36ay8Bs5XWfFGmp70ak2nKxbVKOvKd9jIwBWzDV+xitWWcpvzKw6rBW9TSXgYmnywGWG0Z56m/q3WXYIB+CLPZfzjCass4z4HO6BnYI51dcRQ3akcwJgXK57hyiZzOAO0QhnaMtpPyxgtOFBdskB58oh0i4RrzBdtabRkvOFJcsFQ6M1M7RILVYCytrbaMJxw4x5WrdjCcBtohEiubN622jEecKS5oEgylhnaIRCrHKxxstWU84lBxwd7BCKpph0icgCfpbbVlvOJUcUGn4G0qaYdImHvpZ7VlPONYccHBwSCytUMkyF1cYbVlvONcccGRwQB7+2JEbuFaqy3jIWcuhyhoqPRmrXaImAu4m6uttoyXHC0uGClHslI7RIwFPMilVlvGU84WF4yRnizXDhFT5XiWM6y2jLccLi74Ug5nqXaIGKrIQI622jIec7q4YJYcwQ/aIWKmNm+xn9WW8ZrjxQVL5GjGaoeIkaYMo4XVlvGcg5dDFFQn+JiTtEPERke+sNoyMeB8ceW+yOxK7RCxcBIjqW+1ZWLAg+KCrODe4BWqasfwWjn+w6tUstoyseD8Oa5/TJbjmK0dwlN1eZVDrbRMbHgx48q1RzCRo7VDeKkdX1ttmVjxqLigRvAG/6GcdgzPXMg4GlttmVjx6FDxb+PlNDtkTFE9nuEoKy0TO17NuHJ1DCZymnYILxzCt1ZbJpY8LC6oEQwIBrONdgynVeIuPmA7qy0TSx4eKv5tnpzPB9ohHNWJZ2hppWViy8sZV67GwYhgMPW0YzinCncxxmrLxJrHM65cf8p1PK0dwiFH8Dg7WWmZmPO+uACGyWXM0g7hgB25z97XYxLB40PFfxwefM+D1NSOoaoK1/K91ZZJiFjMuHItkVt5jE3aMVT05BG7yNQkSIyKC2CCXMOn2iEi1pl76GylZRIlFoeK/2gXfBKM4UDtGJFpw2DGBVZbJmliNuP628dyA19ph8iwVvwfxxNYaZkEimlxgchQ7macdowM6cA1HGulZRIrtsWVa6I8yGts1I4RoiwO5zIOscoyiRbz4gKYLffzIqu1Y4SgMn25guZWWibxElBcAMtlIE8xUTtGGezG6ZxNXSstY0hMceWaIP0ZwJ/aMdJUiV6caweHxuSTqOICWClvMpiPWK8dJAXZHMoJHEt1Ky1jCkhcceVaJu8yhA/YoB2kCOXoSG9OtpeJGVOohBZXrsUylOF85NTB4zYcSnd6Us8qy5giJbq4cm2S8YxgBBPJUUyRxV50pwcdKWeVZUwJrLg2WyFfMpZxfB7ppRPZtKELXTnQfjE0JmVWXFvZIBP4kqlMZhprMvRnVKYlbWjNPuxNthWWMWmy4irGJpnNZKYxm7nMZSFlWVYBDWlCE5rSijbsYgeExpSBFVfK1sk85rGQJSxhEUtYzDJWAcvZxAZWAtXIphw1gKpsQx3qUI861KEhTWhERasqY0Ly/yN1mer1uUx4AAAAJXRFWHRkYXRlOmNyZWF0ZQAyMDIxLTAzLTI1VDIwOjA3OjE5KzAwOjAwTAdT0wAAACV0RVh0ZGF0ZTptb2RpZnkAMjAxNi0wNC0xNlQwNzo0NzoxMiswMDowMDDJbaIAAAAASUVORK5CYII=;" parent="1" vertex="1">
          <mxGeometry x="486.51" y="301.11" width="24.65" height="40" as="geometry" />
        </mxCell>
        <mxCell id="VmoYGuIrsJqLHQtWDySe-45" style="edgeStyle=orthogonalEdgeStyle;rounded=0;orthogonalLoop=1;jettySize=auto;html=1;exitX=1;exitY=0.5;exitDx=0;exitDy=0;exitPerimeter=0;entryX=0;entryY=0.5;entryDx=0;entryDy=0;" parent="1" source="VmoYGuIrsJqLHQtWDySe-11" target="VmoYGuIrsJqLHQtWDySe-12" edge="1">
          <mxGeometry relative="1" as="geometry" />
        </mxCell>
        <mxCell id="VmoYGuIrsJqLHQtWDySe-11" value="Kafka" style="sketch=0;points=[[0,0,0],[0.25,0,0],[0.5,0,0],[0.75,0,0],[1,0,0],[0,1,0],[0.25,1,0],[0.5,1,0],[0.75,1,0],[1,1,0],[0,0.25,0],[0,0.5,0],[0,0.75,0],[1,0.25,0],[1,0.5,0],[1,0.75,0]];outlineConnect=0;fontColor=#232F3E;gradientColor=#945DF2;gradientDirection=north;fillColor=#5A30B5;strokeColor=#ffffff;dashed=0;verticalLabelPosition=bottom;verticalAlign=top;align=center;html=1;fontSize=12;fontStyle=0;aspect=fixed;shape=mxgraph.aws4.resourceIcon;resIcon=mxgraph.aws4.managed_streaming_for_kafka;" parent="1" vertex="1">
          <mxGeometry x="580" y="221" width="58" height="58" as="geometry" />
        </mxCell>
        <mxCell id="VmoYGuIrsJqLHQtWDySe-46" style="edgeStyle=orthogonalEdgeStyle;rounded=0;orthogonalLoop=1;jettySize=auto;html=1;exitX=1;exitY=0.5;exitDx=0;exitDy=0;entryX=0;entryY=0.5;entryDx=0;entryDy=0;" parent="1" source="VmoYGuIrsJqLHQtWDySe-12" target="VmoYGuIrsJqLHQtWDySe-14" edge="1">
          <mxGeometry relative="1" as="geometry" />
        </mxCell>
        <mxCell id="VmoYGuIrsJqLHQtWDySe-12" value="Hadoop HIVE&lt;br&gt;HDFS" style="rounded=1;whiteSpace=wrap;html=1;" parent="1" vertex="1">
          <mxGeometry x="690" y="220" width="60" height="60" as="geometry" />
        </mxCell>
        <mxCell id="VmoYGuIrsJqLHQtWDySe-13" value="SPART STORM" style="rounded=1;whiteSpace=wrap;html=1;" parent="1" vertex="1">
          <mxGeometry x="1010" y="219" width="60" height="60" as="geometry" />
        </mxCell>
        <mxCell id="VmoYGuIrsJqLHQtWDySe-47" style="edgeStyle=orthogonalEdgeStyle;rounded=0;orthogonalLoop=1;jettySize=auto;html=1;exitX=1;exitY=0.5;exitDx=0;exitDy=0;entryX=0;entryY=0.5;entryDx=0;entryDy=0;" parent="1" source="VmoYGuIrsJqLHQtWDySe-14" target="VmoYGuIrsJqLHQtWDySe-15" edge="1">
          <mxGeometry relative="1" as="geometry" />
        </mxCell>
        <mxCell id="VmoYGuIrsJqLHQtWDySe-14" value="MAPS ETA" style="rounded=1;whiteSpace=wrap;html=1;" parent="1" vertex="1">
          <mxGeometry x="800" y="220" width="60" height="60" as="geometry" />
        </mxCell>
        <mxCell id="VmoYGuIrsJqLHQtWDySe-51" style="edgeStyle=orthogonalEdgeStyle;rounded=0;orthogonalLoop=1;jettySize=auto;html=1;exitX=1;exitY=0.5;exitDx=0;exitDy=0;entryX=0;entryY=0.5;entryDx=0;entryDy=0;" parent="1" source="VmoYGuIrsJqLHQtWDySe-15" target="VmoYGuIrsJqLHQtWDySe-13" edge="1">
          <mxGeometry relative="1" as="geometry" />
        </mxCell>
        <mxCell id="VmoYGuIrsJqLHQtWDySe-15" value="MC FRAUD" style="rounded=1;whiteSpace=wrap;html=1;" parent="1" vertex="1">
          <mxGeometry x="910" y="219" width="60" height="60" as="geometry" />
        </mxCell>
        <mxCell id="VmoYGuIrsJqLHQtWDySe-28" value="HTTP REST" style="rounded=1;whiteSpace=wrap;html=1;" parent="1" vertex="1">
          <mxGeometry x="482.17" y="401" width="57.67" height="34" as="geometry" />
        </mxCell>
        <mxCell id="VmoYGuIrsJqLHQtWDySe-30" value="WEB SOCKET" style="rounded=1;whiteSpace=wrap;html=1;" parent="1" vertex="1">
          <mxGeometry x="482.17" y="491" width="57.67" height="30" as="geometry" />
        </mxCell>
        <mxCell id="VmoYGuIrsJqLHQtWDySe-53" style="edgeStyle=orthogonalEdgeStyle;rounded=0;orthogonalLoop=1;jettySize=auto;html=1;exitX=0.5;exitY=0;exitDx=0;exitDy=0;entryX=-0.006;entryY=0.836;entryDx=0;entryDy=0;entryPerimeter=0;" parent="1" source="VmoYGuIrsJqLHQtWDySe-31" target="VmoYGuIrsJqLHQtWDySe-16" edge="1">
          <mxGeometry relative="1" as="geometry" />
        </mxCell>
        <mxCell id="VmoYGuIrsJqLHQtWDySe-31" value="NoSQL DB" style="shape=image;verticalLabelPosition=bottom;labelBackgroundColor=default;verticalAlign=top;aspect=fixed;imageAspect=0;image=data:image/png,iVBORw0KGgoAAAANSUhEUgAAAE4AAABhCAYAAAB4UJf+AAANL0lEQVR4nO2daXPcVnaGH+y9r2STTVKiNmq3LdkaTyYeR06q4lRN5Vf4FyaVVKUqHzKZL6MZZxzt1k5KpLg02Tu60dgxH9AERYsS2ZDXEZ5SlSh0X+DixcE9975inSs4jhNwRIIgYDgckkqlkGX5qM1it7927RpffvklX331FWfOnPnRr/9dfN9ne3ubYrGI3O12J7qw67rYto0oihNfeNL2nudhWRb9fp9ut/ujX/+g9r7vMxwOkVVVnaghgCzLSJIU68KvtjdNh+2dAY2dPoEffmYYNp2uAYCkfUCzW+HG11s8eGwC4Hk+oiiwMF9mfq6MLAlMT+cRReFH6b9pmiiKgpxOpydqGAQBmqa9MdRNy0HXLQA6nSGu6wPgOB6drkFju4cgiIiiiGU5NFtDdpoD/PFNjUY23d4ovJ64yOa2xo2vN5GVZnjM9xEEgbl6ifpsEUkUmJrKUS5lUBUJLaVQLqUpl7MA5PMaKU05cv/fhu/76LqOqqrIiqJMJJwoisiyzG471/XYavTRBxaDgUW3a9AeR8z2dh/H8QCwLJfGjs7WVg/fDxAEAc/zGY0cDNOJosF1fSzLDTsaZOl0ffRB99VOgCCwvtEnm9UQBYFUWqE2lUPVZLJplVotT61WAKBSylAqZUinFAQBcjmRbFYkl5MjQScRDkCSJCaXHRgMLQgcHMel2R5y6/Ya6xs9thp9Wu0h5sgBQB+aeN6eIIOhyWBgRyIdBdv2sG3vteOGYcPOIPr3SkZFlkUURSKf08hnUwCk0grVSpZyKYMkCZw/N0U+n2WmVqA+UySX19BUGUE4/FV/lSML5/sBruthWS5Pnrbo9ix2WgNu3lrjxVqbbm9ErzeKomUSBEFAAAQRwp/Gx0UhFDn8Q+AH4d8HCG8YdvRzqzXc95mmyWQyKqIocPd+AU1Tma+X+PCDea58dIz5ehFFkZBl8chJQwiO+Ph7vRG37qzxf9+ssPy8zXBoo+smq2sdXM/H93z8IGCCYAJAkkRma3kEUaBcTJPLp6LPZmcK6LrJ0LCxLJftHR3f92m3DcwJHpAgEEWULIsICORyGvV6gZOLU5RLGT64PMeVDxeYq5feeB7f99nY2KBSqRwecWsv2zx+us3jJ9s8etzg4eMt+rqJ5wa4nodpvvkGKuUMlUqWdEqJbqBY0FBVhXw+RTarIYki1WoWURDI51NkMntZfrqaY2hYGKNwWGi1h9iWxWDo4ozHwm7PiL6v6xat9pB+34yO9fsjTMuNonT3tXe6HsbIZnOzj6JILD9v8vBRg+PHyszUCiwt1aiWsyjKwdn3QOFcz0fXTdbXu3xza5Wbt9Z4ttKk2zXo9kb4/sFhVSlnmJ8rMT2dB6A2lWN6KheJIQiQzytk0ilKpSyFfApBEEilwjEmfF32OppOyTiuj+v6+L6PaToMh0MEQUYQREamQ7u991r2eiO2d/QoKwN0ugadrkG7bbCx2UXXLfwgwPcDRiOH0Xg8NkY2q2ttqpUs83MlLr2Y4+qHC5xYrJJ/5S14o3CW5bLV6PHgUYPbd15y5946K8+b9F55iruoqkRhfNJSMcPSUo0rH8yzdKYGQDajkslq+59a4JBJp8nlUmgTZrUgCNB1hXQ6jaIoOI7HaLQ3tpmmy8CwME1n79jIod0xeLHa4vbddZafN+l0DIZDC2c8VQLo9036fZONzR4vVts8W27SbOpc/+0S587OkMvtF2+fcJ7vs72j8/s/POb3f3jM2nqHTtc4MKvJksjsTIGrHy4AcOWjY5w+Nc3CfImZ8VTg4BvXSadTTDINehOKIqEoe/PQQgFq5F/7nmk6XDg/y8ULde7cXeXu/U2eLbfYaQ2wbQ/P2xPQdX3aHYN2x6A/MHHHE+6LF+ZQlL3EsU84XTe5c3+df/vPOyyvNPF9/42D/dxckS8+X+Jf/vkSACcWK+SyWqylzA+NpsnUZwtMT+WoTae4fGmeZ8st7t5b5/bddTa2+gdm6o2NHv/zv49xHR9BFPjw8nz02T7hllea3PjTMqtr7X1P4bucOlHl+udL/NMX56LXMqXJSNLPTzQYT3cEAVmGcilDpVzg2EKVhfky2VyKf/+P29jO629VEAQ0Gn1ufL0SrVNL45cpEq6vmzx4tMWde+uHzsWufbLI9c+XWDpTI5s5+lr3pyYUTySd1sjl0miajON6/PHGMxo7erQ8fBXb8Vjf6PKXm6tUqxmufxZGXRQiW40+T57usL5xuFty8UKd82dnyedezza/FBRFolrJcvZMjZmZAuobph0QJszNzR43b7/EGo/38u76a2Ojy+ZW763zsuiisogoCtHa7ajsjiO7YT8p33f73WmVqkoIh7grxsjh2UoT1/UIggDZNMNpRqc7wDCsI3Xgj39aZqaW46MP5ibueBAE2LaN606+NPu+2zdbQ/78l+esvuwcOjx5nk9/PIe1bRt515eSRPHIC91vbq4yGtmsPD/BZ785TW0CP8zzPERRjO2HfV/ttxo6N/68wn/997c0m4MDx7c3MXaIwvwgStKRhWu2hty8/ZJe36TXs1g6U6NSyVAuZSiXM28c+3aftiRJsa3vuO0Nw+b5ixamadLYHvB0pcW9+xs8ebpz4Dz1bUiStBdxoigcWTjX9el0Rzx41EDXLR492WZm7IEtzJc4tlAml9XI5bRoiiJJYpSB3yViDmtv2y6j8cphMLDwPB99YLG61ubbB5s4js3y8zYbm33a7SGDoX3ged6GKIrx/LhdDMPmybMdNhs9ctkU+ZzGTK3AqZNVZmcKzM4WUdXwBjVNpjaVxzAM8nkLTVURJQFVCbugqhKiJCK9cmwX1/VwXJ/A9+n3TUwrQJEVPN/HGUeLZbv4fsBwaNHqhOvXza0eju2xsdnj24dbkbvSag+PlATfxjsJB7vLKAtdt9gEnq+2ePhki2IhTamYRh5HnCxL5PMarucxN1sil9XIZFRqY0NgdrZAKqWQy2lMV/cvm/r6iFZ7iOf7rCw3EAQJSZIwDJvtHR2AzUY4I7Asl+EwTHLd3gjX8+n2RjSbA75P3lm472LbHq3WkE7HQBJFdn3J0KgUIIBiMYWqyWiqTLEQrjXLpQyKIpFKKeTz2r5zjkYOg4FF4AfsNPsEhMOKZbv0+qET0uuOsB2PINh7pX0/GE89JjQJj8D3LhyEHfb9AJeDM5XjegiCgCgKKHIfCCekggCiJEZRunc+P8p6tu0SEDrFfhBE/6cRzq9+iLs5mB9EuMN4NfXHsdp/Dvw8V+W/ABLhYpIIF5NEuJgkwsUkES4mkR8XjCeLCYezz4+zHSeWOfg+EtuPe9+J7ce978T24953RFFMsmpcEuFikggXk0S4mCTCxSQRLiaJcDFJhItJIlxMEuFikggXk8SPi0Hix8Uk8eNikvhxMUn8uJgkftw7kAgXk0S4mCTCxSQRLiaJcDFJhItJIlxMEuFikggXk0S4mCR+XAwSPy4miR8Xk8SPi0nix8Uk8ePegUS4mCTCxSQRLiaJcDFJhItJIlxMEuFikggXk0S4mCTCxUR2nLAOked6ia10RFzXRe71egAYIwPPm6yq1fuKYRjImhaW45FlJXFHjsi+/RxUVY1Vmux9RFXVPSNzrl6iXM78xF36ZSBJ0l5WXTxe4eTiVFSCO2E/oiiQSavsjmaRcFPVHJcv1rl0oR4Vy0vYI5VSWDxeiYrY75vHXbo4x7/+7jKXL9R/ks79nKmUM/zjF+eiLRb2lUGrVLJ88vEitu0RAA8fNaJ6k+8z01M5rn18nN98ehJNDWtq7hNOVSRmpvP8+lcn8P0AWZZ4+LiBrr++JcH7wumTU3zy8XE++7vTLMyXabd3gAMK76mqzFy9xD/8dgnX9cikFZ4826HTMd6b6JNlkalquInH3//6FJ/+6gRnTk+TTitRcjiwYqGiSMzVi3xx/RzVao7/v7nKvW83WFvvYhhW+Cr/Df62hKrKZDMK1UqOq1cW+OTqcS6er1OfLZLJqPuWpG8t9bgwV6KYT3H65BRXrxzj3v0Nbny9zNrLbrRlyd8Si8fKfHrtBFevHOPEYpWTi1VSqYM37Di0RmYmo3L8eIWpao6Ti1VOLBZZXukwGNp0OgYPHoX1dX+pEaiqEpcv1Ll8aZ6zZ2ssna5xfKGMqsqo6pvlOVQ4SRKRJBF1XGo2lYKl07PYdlhf9+xSjSdPt1leabK9M/hZj4PhLk0pKuUsmiaTz6c4fXKa8+dmuHBulunpfFSf+DCOXJVVFEXS413VpqpFBEHCsl1OLFa4cG42HANfdsK9XvomW42wTO3IdKKSsz8WiiIxU9srwpzPpyiXMggClEsp6rMlslmNcinDhfN1KuUM1Ur2rRH2XeRJrKTd359T1bBIezotU8hr1KbzHD9WDvcd7Bisvmxz89ZLAFqdcJ8s1927znBo47jhJmjOBFXtX0WSRFRVijawUFUJVQ23f8lm1WgTIgjX4adOToEAihRQLufQUiqZtMr0VC763mFa7CYH3/f5K9CKicReRrXBAAAAAElFTkSuQmCC;" parent="1" vertex="1">
          <mxGeometry x="450" y="631" width="32.17" height="40" as="geometry" />
        </mxCell>
        <mxCell id="xtuOTpbcw4Mhme8Igq2t-1" style="edgeStyle=orthogonalEdgeStyle;rounded=0;orthogonalLoop=1;jettySize=auto;html=1;exitX=1;exitY=0.25;exitDx=0;exitDy=0;entryX=0;entryY=0.5;entryDx=0;entryDy=0;" parent="1" source="VmoYGuIrsJqLHQtWDySe-55" target="VmoYGuIrsJqLHQtWDySe-61" edge="1">
          <mxGeometry relative="1" as="geometry" />
        </mxCell>
        <mxCell id="VmoYGuIrsJqLHQtWDySe-55" value="" style="rounded=1;whiteSpace=wrap;html=1;" parent="1" vertex="1">
          <mxGeometry x="650" y="391.06" width="70" height="210" as="geometry" />
        </mxCell>
        <mxCell id="xtuOTpbcw4Mhme8Igq2t-3" style="edgeStyle=orthogonalEdgeStyle;rounded=0;orthogonalLoop=1;jettySize=auto;html=1;exitX=1;exitY=0.5;exitDx=0;exitDy=0;entryX=0.5;entryY=0;entryDx=0;entryDy=0;" parent="1" source="VmoYGuIrsJqLHQtWDySe-56" target="VmoYGuIrsJqLHQtWDySe-57" edge="1">
          <mxGeometry relative="1" as="geometry" />
        </mxCell>
        <mxCell id="VmoYGuIrsJqLHQtWDySe-56" value="Region 1" style="rounded=1;whiteSpace=wrap;html=1;" parent="1" vertex="1">
          <mxGeometry x="826.33" y="402.78999999999996" width="57.67" height="28.42" as="geometry" />
        </mxCell>
        <mxCell id="xtuOTpbcw4Mhme8Igq2t-4" style="edgeStyle=orthogonalEdgeStyle;rounded=0;orthogonalLoop=1;jettySize=auto;html=1;exitX=0.5;exitY=1;exitDx=0;exitDy=0;entryX=0.5;entryY=0;entryDx=0;entryDy=0;" parent="1" source="VmoYGuIrsJqLHQtWDySe-57" target="VmoYGuIrsJqLHQtWDySe-58" edge="1">
          <mxGeometry relative="1" as="geometry" />
        </mxCell>
        <mxCell id="VmoYGuIrsJqLHQtWDySe-57" value="Region 2" style="rounded=1;whiteSpace=wrap;html=1;" parent="1" vertex="1">
          <mxGeometry x="894" y="459.63" width="57.67" height="28.42" as="geometry" />
        </mxCell>
        <mxCell id="xtuOTpbcw4Mhme8Igq2t-5" style="edgeStyle=orthogonalEdgeStyle;rounded=0;orthogonalLoop=1;jettySize=auto;html=1;exitX=0.5;exitY=1;exitDx=0;exitDy=0;entryX=1;entryY=0.5;entryDx=0;entryDy=0;" parent="1" source="VmoYGuIrsJqLHQtWDySe-58" target="VmoYGuIrsJqLHQtWDySe-59" edge="1">
          <mxGeometry relative="1" as="geometry" />
        </mxCell>
        <mxCell id="VmoYGuIrsJqLHQtWDySe-58" value="Region 3" style="rounded=1;whiteSpace=wrap;html=1;" parent="1" vertex="1">
          <mxGeometry x="894" y="505" width="57.67" height="28.42" as="geometry" />
        </mxCell>
        <mxCell id="xtuOTpbcw4Mhme8Igq2t-6" style="edgeStyle=orthogonalEdgeStyle;rounded=0;orthogonalLoop=1;jettySize=auto;html=1;exitX=0;exitY=0.5;exitDx=0;exitDy=0;entryX=0.5;entryY=1;entryDx=0;entryDy=0;" parent="1" source="VmoYGuIrsJqLHQtWDySe-59" target="VmoYGuIrsJqLHQtWDySe-60" edge="1">
          <mxGeometry relative="1" as="geometry" />
        </mxCell>
        <mxCell id="VmoYGuIrsJqLHQtWDySe-59" value="Region 4" style="rounded=1;whiteSpace=wrap;html=1;" parent="1" vertex="1">
          <mxGeometry x="836.33" y="560.79" width="57.67" height="28.42" as="geometry" />
        </mxCell>
        <mxCell id="xtuOTpbcw4Mhme8Igq2t-7" style="edgeStyle=orthogonalEdgeStyle;rounded=0;orthogonalLoop=1;jettySize=auto;html=1;exitX=0.5;exitY=0;exitDx=0;exitDy=0;entryX=0.5;entryY=1;entryDx=0;entryDy=0;" parent="1" source="VmoYGuIrsJqLHQtWDySe-60" target="VmoYGuIrsJqLHQtWDySe-61" edge="1">
          <mxGeometry relative="1" as="geometry" />
        </mxCell>
        <mxCell id="xtuOTpbcw4Mhme8Igq2t-10" style="edgeStyle=orthogonalEdgeStyle;rounded=0;orthogonalLoop=1;jettySize=auto;html=1;exitX=1;exitY=0.5;exitDx=0;exitDy=0;entryX=0.5;entryY=1;entryDx=0;entryDy=0;" parent="1" source="VmoYGuIrsJqLHQtWDySe-60" target="VmoYGuIrsJqLHQtWDySe-56" edge="1">
          <mxGeometry relative="1" as="geometry" />
        </mxCell>
        <mxCell id="VmoYGuIrsJqLHQtWDySe-60" value="Region N1" style="rounded=1;whiteSpace=wrap;html=1;" parent="1" vertex="1">
          <mxGeometry x="768.66" y="505" width="57.67" height="28.42" as="geometry" />
        </mxCell>
        <mxCell id="xtuOTpbcw4Mhme8Igq2t-2" style="edgeStyle=orthogonalEdgeStyle;rounded=0;orthogonalLoop=1;jettySize=auto;html=1;exitX=0.5;exitY=0;exitDx=0;exitDy=0;entryX=0;entryY=0.5;entryDx=0;entryDy=0;" parent="1" source="VmoYGuIrsJqLHQtWDySe-61" target="VmoYGuIrsJqLHQtWDySe-56" edge="1">
          <mxGeometry relative="1" as="geometry" />
        </mxCell>
        <mxCell id="xtuOTpbcw4Mhme8Igq2t-9" style="edgeStyle=orthogonalEdgeStyle;rounded=0;orthogonalLoop=1;jettySize=auto;html=1;exitX=1;exitY=0.5;exitDx=0;exitDy=0;entryX=0.75;entryY=0;entryDx=0;entryDy=0;" parent="1" source="VmoYGuIrsJqLHQtWDySe-61" target="VmoYGuIrsJqLHQtWDySe-59" edge="1">
          <mxGeometry relative="1" as="geometry" />
        </mxCell>
        <mxCell id="VmoYGuIrsJqLHQtWDySe-61" value="Region N" style="rounded=1;whiteSpace=wrap;html=1;" parent="1" vertex="1">
          <mxGeometry x="766.33" y="459.63" width="57.67" height="28.42" as="geometry" />
        </mxCell>
        <mxCell id="VmoYGuIrsJqLHQtWDySe-63" value="Supply" style="rounded=1;whiteSpace=wrap;html=1;" parent="1" vertex="1">
          <mxGeometry x="656.1600000000001" y="431.21" width="57.67" height="28.42" as="geometry" />
        </mxCell>
        <mxCell id="xtuOTpbcw4Mhme8Igq2t-8" style="edgeStyle=orthogonalEdgeStyle;rounded=0;orthogonalLoop=1;jettySize=auto;html=1;exitX=1;exitY=0.5;exitDx=0;exitDy=0;entryX=0.5;entryY=1;entryDx=0;entryDy=0;" parent="1" source="VmoYGuIrsJqLHQtWDySe-64" target="VmoYGuIrsJqLHQtWDySe-59" edge="1">
          <mxGeometry relative="1" as="geometry" />
        </mxCell>
        <mxCell id="VmoYGuIrsJqLHQtWDySe-64" value="Demand" style="rounded=1;whiteSpace=wrap;html=1;" parent="1" vertex="1">
          <mxGeometry x="656.1600000000001" y="530" width="57.67" height="28.42" as="geometry" />
        </mxCell>
        <mxCell id="VmoYGuIrsJqLHQtWDySe-65" value="Load Balancer&lt;br&gt;" style="rounded=1;whiteSpace=wrap;html=1;" parent="1" vertex="1">
          <mxGeometry x="368.41" y="363.89" width="61.59" height="37.11" as="geometry" />
        </mxCell>
        <mxCell id="VmoYGuIrsJqLHQtWDySe-66" value="&lt;font style=&quot;font-size: 18px;&quot;&gt;&lt;b&gt;UBER Architecture&lt;/b&gt;&lt;/font&gt;" style="rounded=1;whiteSpace=wrap;html=1;" parent="1" vertex="1">
          <mxGeometry x="480" y="100" width="210" height="40" as="geometry" />
        </mxCell>
      </root>
    </mxGraphModel>
  </diagram>
</mxfile>
